<mxfile host="app.diagrams.net" modified="2024-02-07T23:43:24.287Z" agent="Mozilla/5.0 (Windows NT 10.0; Win64; x64) AppleWebKit/537.36 (KHTML, like Gecko) Chrome/121.0.0.0 Safari/537.36" etag="n6TIKEPUqdU3X0dlQDjs" version="23.1.1" type="device">
  <diagram name="Page-1" id="q5Xm4crhtOs3lrjExe5Y">
    <mxGraphModel dx="2948" dy="2192" grid="1" gridSize="10" guides="1" tooltips="1" connect="1" arrows="1" fold="1" page="1" pageScale="1" pageWidth="850" pageHeight="1100" math="0" shadow="0">
      <root>
        <mxCell id="0" />
        <mxCell id="1" parent="0" />
        <mxCell id="_slHPmMoG6IYupCmUko4-2" value="" style="shape=image;verticalLabelPosition=bottom;labelBackgroundColor=default;verticalAlign=top;aspect=fixed;imageAspect=0;image=data:image/png,iVBORw0KGgoAAAANSUhEUgAAArwAAAKVCAYAAAAtGTi9AAAAAXNSR0IArs4c6QAAAARnQU1BAACxjwv8YQUAAAAJcEhZcwAADsMAAA7DAcdvqGQAAMPdSURBVHhe7P0JnGVVfe8Nr56qeq4eqnqorga6mRFjJ2HSJ+DDFM3VSIPzJ2G4Dsm9gDzR9r4yZEANIu8rJh8Fci8YLzbeBzQOtLkaFYFH8TECHYVokFYDGuiWoRma7oYeq9/zXXV+1as3+5w6p+qcqnP2+X37s3vvvfaaT511fvu//3utSRs3btwXjDHGGGOMKSiTy3tjjDHGGGMKiQWvMcYYY4wpNBa8xhhjjDGm0FjwGmOMMcaYQmPBa4wxxhhjCo0FrzHGGGOMKTQWvMYYY4wxptBY8BpjjDHGmEJjwWuMMcYYYwqNBa8xxhhjjCk0FrzGGGOMMabQWPAaY4wxxphCY8FrjDHGGGMKjQWvMcYYY4wpNBa8xhhjjDGm0FjwGmOMMcaYQmPBa4wxxhhjCo0FrzHGGGOMKTQWvMYYY4wxptBY8BpjjDHGmEJjwWuMMcYYYwqNBa8xxhhjjCk0FrzGGGOMMabQWPAaY4wxxphCY8FrjDHGGGMKjQWvMcYYY4wpNBa8xhhjjDGm0FjwGmOMMcaYQmPBa4wxxhhjCo0FrzHGGGOMKTQWvMYYY4wxptBY8BpjjDHGmEJjwWuMMcYYYwqNBa8xxhhjjCk0FrzGGGOMMabQWPAaY4wxxphCM2njxo37ysctyb59+8J/++bPy2fGGDO+/F+vOSgs75lRPjPGGNOOtLzg3bNnTzj0b//f8pkxxowvt5x9dDh5ZV+YNGlSOcQYY0y70fKCd/v27eGYv1tfPjPGmPHlpj9YEc44eiBMnmwPMNMcPvCNn4UvP/RU+cyY9uWedx8fDpo/s3zWWrT8CI5LgzHGTBQeg0wzGRwcDIN7B8tnxrQ3O3fubNkx0yYLY4ypgl0ZTDOJgnefBa8pBrt37y4ftR4tL3j9Y2OMMcYY0wa0sGSzhdcYY6rA4znfeJumYq8ZUxRa+G+5pQWvfeeMMa2AxyJjjKkBW3iNMaZNsXXXNBv/iZmiYAvv6PBjRGNMK+CxyDSVgj5AeNWyeeHgBbPKZ8ZMLLbwGmNMFZC6dmkwTaVF76dee9ii8Jl3nhh++RdvituX3nVyOO/4FeWr1Tnr2IGwfs0fhL9/x4nlkObwqmXzw3cuOi38xeuOLYc0lr983Stj29d/8PXhklOOLIeODPW6dvXvDPcddcz23WsPXZQbbppDywte/9AYYyYSv7RmOhFE2HcuPD2cf/zK0DO9K26I2L9/50klETiyuPzVs9vDgxufC+t+8ng5pDnMmzGtJBwXN8WS/MnVvxuF9PMv7grzSu1HwL7vlCPKVytD361fMySQD54/K/YddaTvyENQ52bV3byclhe8/qEZmfiFL92Jn3fCirivB76Qnyl9CZsNj7bqrVs9kPdZr1xW98BRS98R3sy6Z6GvVB/qVy9xEC2lVV9kz02deAwyzabF7DqHlMYKxBl84Kv/Evqu+FLc3vLZe8LzL+0uicBXRutkHhqzHtz0XDju2m+GT9/z83ieJW9sG2m8q3UMG824mce5JeGKcKcdbLS9UrtF2ncf+eZPQt/lQ3133Ce+GX5dyovf3FosurRhpHbUEsfsxy4NbQ5fnl/8+VnxTvzv33FS3P/iz99U4xdq6I71/FLcZouhL//nU2LdGg1f9u9cdHrM+0ulMn5Zanstd+BQqe/S9PQL4Z8pXW82PAKj/kOPAYfq8/RVb6nJmpIiy4z+BnQ+0kBt8vFNt2k6LfYnhqCFz933yAGCdd1PHw9rbv+X8N1fPhVOKY8n3Ezv/uQ7o+sDYzFjFmNOGg6EcY7FFEFIPM4Z3xCJSpsd8xjjFZ/xcSjPk3KFHu4HygNXAf2u8TunslOUH1bYPLa8tCuWw0Ze7BG91Uj77qPf/ml4fsdQfG4A1tz+o3issTmPbF/gSnHWscvKV4eoJc6E0cLDpQVvG8OXmy8yX8JPfffh8JFv/SSsLX3JdIc5kvB7vvRlPu4T/xROv/7OeOfZjrzp2IEo5D713Q3D7aBf8gbDFMSu+m7dTx47oO94jFWraG4UlPvl/3xyHFQZKN996w/DB0qDI+2pZk0x44DdqkyH8ar++XH/qe9tiPuUtfc/Gs644c4o5lLOOnZ5TMf4Ve33BBeJg+fPHHZ1YHy7v3ST//yLO2MYYzJhGsOvLY3HCMTv/vLJOC4yTmOkkbAUlI9Fdu19/x4e3Ph8acxcHG/0yedr5bLScVQv1OF28evn8uv7uVJbMQx9qTQ2kxfW3o9+68B2Z1Hf0U9ZuGGY9oFbS/13VznkQKKQLZVDHvpNx5XiS+86ZbjutcSZSFrZBaylBS8dZx/efPij190qj0rWrPtx/CK++7Z746AACD/BI3I2vvzvSx6pHLJwdmnbf3dLHFwDFI8yGBiAMhWmO2dBfNJyjY27+0pQNnHSu1zy1mP8FKyeeeFC4Z+7/5HwvX9/KjxQuotmgKoG1xG88O7/+4fhLf/z+8N9d0ZJNEPad3mk/UM7sv0BtcQRDF5cR3y/p1QPBstPl35ssAjw4/GmVw6UYw5Bu9XXfF71ktaNrVrdOh5beE2zabGfOY35/5EIQfx3NV6wZY0CGFAO/+i6OH59tzQWV4KmIvje8j/vGRbUjHuMw4RhPQaMGSAB+dFv/ySOi/qNW3tfVlDui+M3v4XHXftPMR9+V04pCV/qwzj62sMWx7EPlH+eqBe3lH5XohtDKR3tI/9K4lgo/5Hi5cGYzFiMFX34N738e35u6XcQqsUZb0NNHpNK/1pVt7W04OUuYfJkG6Hz0OMkBgoelaQwKLz5s/dEsaQvH4/Ihx6TnxE+ufp3hsXmtWf9TgwXHH/irN+Nd5DEQ/jxiJ343IUrjEdB6R2nHsNfcspR8Trp8x7FYz3F+kwc9jj2U0cGlWtL5XInrToDAyv5Vnrk9EDpTh7OP2FlFLEMyvRJtcdO1JsBA4vB2vUHDpoMjFhWGQTTeqTw6AhXCPUF7Ri64x76kYBa4uTxqmULDhCfWAQO++uvDT8Kg/39+8q44crxnQtPK18dGT4v1U2fVz2uIB2Hb7xNs2mxeyqNnz2J8eBNpRtrjTlsjB0pD258dvjxfTW+++9Plo+GRDKk4vDXz20rHw3BGAiMc8wSgeBjnM7+7jGep/moHIl3rLWAFRiwCIMEdhbGScZZfgcQy5yvKufFrAty1WgkGHgAAwf5s0noYrGGanH4/TCVaXk16R+afPRHX+lO+mulQQLhmxV+DDA8+l9z+4/LIS+HLzaDwGEf/Vp0FQAE25qv/ku0JuvOWl8yxDcijUdZOOcfXkpH+vOOX/ky0fhbJcFHvuTDYyfawQBGvXi0hPVVd/TAl5xreY+HACso+chFgUGvWtvgt8qDVqW+I0/umvNE85Df8+/GY/qRx1O8yEGfUT7UEieLLBDEQXxqYE/FL3DjwU0A/cvLEOTNZ4QFgvBa+ESpDnwuehmFz4uyuVkwL4cxyH68plnEv60W+5ljLIZDEkPDmq/+KI7djGWAf2tKLWJ3NHz0Wz+JFkyNUdyoM0ZmDSojlb/2/kfinjwYZxHCWZGcgp8w4y/jZLTslsonLD6to18qfGa4PUCeewHlVntiqf5mf8j82cMb4z111TXtK8WZUFp4qLT5tE2RkNySiDK+RJrzTxsCM4WBg0f/2bvjLGvW/SgOBJ+6Z0jwMgBiDSUdYjpFVoBVJfFKHX5VSoePF5bJrGj8wO3/EvMdcuD/lxgmoYXQBD2+J5x2VpvWBsGcisLoAlDKn3owsGQF91hJrcOUwzFuFNFnrCQ6Oa8lThZEPW8Bf6D0o5Id2FORfN4JK+MeC3TPzK6Yl6zUeQNsHvqhetXAgjjo83nxWVXyKzO+8TbNI/5ttZhIkDEgvYlGUDKeydjyQFkUjwfUh98UGQ8g68MrC6g4ZMHsuGdsBcZVRCH1/8Pyb04lQwpIWN5SGl8ZI3lqygeF8Qe+9tONcZ9FFmmMMNnfH4xAPLE897ghY1EWfieA3zHaq+0t//N70VUEaokzkewbbN2x0oK3TZGQ1OADfKH/n188GTfm/eMuNOvPyoA1GjRowPM7Dryzv6U0aFA2deEREG+98oZs3luj/7ppyAUBGERAgplBjXbJ3ULCt9KgxN0y5QFCnrQ47iMCsY6mrhop6rts39SCrMNnleqGGNWmx2b0eS1x8qCPP126wUB8YnWVVYOBUz88vJwAX37XycP54hYCB5cH+JH46Dd/GvPlxQ9cUXjLF4tynhA3xnQeGB8YI7hBH5q55shoQEDsMRYxhvIUbDxgfGKc0w29fn9kSRX8HmD1ZZzF5UK/I1/7yX5hihhl3Oc6ZI03KcofVzvynDdz2rCxgPZ/L3HNSNFTR34PcQOsp+8+XX6iipEjllkSzNSVPpDho5Y4E0krPw1recHrR4n56K3T1CeULyh3eGz6Yv5r+W6wmSDUEGk8vsf/FYssd9t5b42md7w63j+I4LrwSByQSMdGm7BI54EvFnl85Fv/GkUxFmOJYMrHKi1xm/KvZcuEBsQs6z/4B1Gwp3UVyo83hWlvdiPvWuJkkUVaopObgaE2DfnuZvsRMZzNV5aPkZBFlzS84Us/YVGWP7V5OR6HTCfBWKzH+IypPG3CgMCYyfj25s9+b9TGk3rRk0Cm4YrGlNL4Th0+WA4XiFksqNzEy0DAPLhpPTHOAOMcLnh5vw/iPWWDA+MyeVIu4zNP7kiPEK7EW0r9gzU523f8nlV78Q2jz0e++dMolmWMoC2kk3thLXFMPrbwtin80esOPOvLxN2evpjVvtCNArHEFw7hyt0tb9rqsU7WasjdrtBLA+mjMQn5v3j9/jZUQm3ToysE4kdKd84MMgxIld6+pe+4Ax/ytd1/R0waXqqLNxH79uefIrFK3RDi2igzWttLuqiWOFl4k5hBMfuYLsZP0IsYad68SY1gPmTBzHhtJBh4aTc3Q1gaeBzG3xL9kb6kYvZjlwbTVFrwzyu9McaQwcZjfWZiYNwRjKXcgGdnTciGf68kALPxsL4SllphuU4YgjGel8Z1PfHiBp09dVhXdilQOYg9xCTH1JV6Z6dOQ8gTHyq5JAi1nzZTLnniw4zrF2GMxZUMBKRlXE37juPjP/FPB7gTqk/S9jMbBe0lDeUqXSqSa4kzYbSwbWDSxo0bW3ok37ZtW3jFfz/wTs4Mwctd3PXypUOc8XbrwfNnD58zx66+ANwZAz5QKTwqQjwpPBuPa8RBeMrHE3HF3S5Tgb3n1nujgOJxDXeYstDyGD6tg8pBWGnqMFktGUTSLyp3rBpIfreUPnWDSMHH6v4P/kGMi8BmMENEKy2CN53dIIW09B11yvZdeheu9hN2eGnwA2aSwF0ByyjlctNBWzjHD7fWOClpfSiL+tBHeoEPiwEDfNpm3jrmJoMbDtIxcPLjwM0HNz0MhAhanes6M3Nc8tojh+vGDYOsD2qj2c+Nrz8k/P4rDrKV1zSFvXv3hvd//aGw7ufPlkNMMxh6/N8Vf7s81jWPf3r70eHogb6WHC/t0tDGcKfIXR2PzkHiiEc1qdgFhCZbliiukvC8eJwjJgXHhOmFOUQUYgrxhbDisVIUyGXRCCqHO2NEm8QfQi6tJ+htWtJUErvAXTTtxxKA6GNCc6bGoS7c7ROGkMsj3oGX6pftOybyzj5yGuqT/VPlxPkjS/kzeNJe0iqdqCVOSlqfoZuBxVGA04/cvcuakbYZH1xuLIA3ifkcIAr4Up3Z551j9UjrxnyUTOVWqW7GFl7TPPy3NT6kq31m3SFMZ9DSFl4Ggu3bt9vC22FgLUaoMqPDp7+Xvw67MeOFLbymmezZsyd84Os/C+t+YQtvs+DmnukzeTKGsSBrZDGNwxbeUeIfmM6CWR2YRBuxizUy9WsyZqJgHLIVzjQV/9Q1FZ5Kam56i90m08J/y35pzbQMTEOGW0LWHcKYCaUkeH3zbYwx7U1LC16sKv6h6Rzefeu98WU5Xo4baWEMY8YNW3dNs/GfmCkIrfw0zC4NxhhTBbszmKbjn7q6wBeX+XGZgYaNmYPqhWkiyUNps+emeNilwRhjqmEfXmNaBuYm/8WfnxXnLWeWGTZmX6h34RymciQPFjACXmpLz83omMS/FjVWtrzg9Q+NMWZCKY1BftpkTGvw5f98chS2TK143Ce+GadtZDEJhHC6sJGZOFpVt7W8D68xxkwkkyb7QZhpLr6hqg0Wj9DiPGvW/Si+68Gqb6xqxvzz86YfuFIki/8w8w9LxbO6JGnrATcH0n3pXSfHrdK87qY9aHkfXg8ExpgJxTfepsnsG/TfWC38+tkX4x4h+r5TjojHwLRj77nt3iiCBcvExxUvWX2zJIRZpAfXh1pFL2Xcv+YPYjoWS1rVPz/OEf+dC08rxzC5tLBks4XXGGOMMS0PwvYj3/xpPEbQsgx9nuWVF88QxExxefhH18Xl3JnqEhH79+84sRyrOvjy4jrxkW/+JKY/7K+/FlfCxLpcj69wp9HKN29+VmeMMVXgxts338a0Bh/99k+i3y7ik+XsWUIey+sv/vxNw9ZblksHlmR/1cD8oZkXJg0ts46vby1oKfbzTlgZBTXuFO++7d5oSdY183Ja+al8y7s0+IfGGDOR2K3KNB3/idUFfruIT6yuvLi27iePH2C9lQX2k6t/J7oxaCOcZYZr4dPf2xBFdcy3JKjXr/mDKKr/8nXHlmOYdqPlLbz+sTHGTCilMcjjkDETj5afZy94cQ2rK7z2sMVxL9782XviYkbZrVYQ1X2Xf2nYooxY/ovXvTK89lDP1duO2KXBGGOqsG9wsHxkjJlIcCVg+flPrP7dA14+48UyeHDj0Aqda+97NO4vSV5sw1KLvy8LVdQCeRIfFwhZlL/770/Gaz01WolNa+GX1owxxpiJxD91NfHdkvD87i+fiuL1l3/+pvDLv3hTfHFNIvaj3/pJ3CseFl/cEJiWjBkX8Petta9//ez2GP8z7zwpCt/vXHR6POelta/99PFyLJMF3daqT8SmrFmz5srycctBp+3atSvcsP435RBjjBlf/vCweeHQRT12azBNYXBwMHzrl5vDhmdeKoeYaqy9/9EoRuWLy4tr33r4N2HN7T8K397wRAwDxTtkwey43fvrzeGiL90fblk/ZP3l29wzfVq03j646fmYH1pY5xueemG4HAT29KlTwo0/+GV4z60/DDv2+KlPJf742L7QO3dmS46XkzZu3Niy95bcKbz44ovhmL9bXw4xxpjx5cbXHxLOPGZ5mOwFKEwT2LNnT1jzTw+H2zc8Uw4xpn35p7cfHY4e6GtJwdvyszTYqmKMmUhYac3jkGkmdt8zpvm0vMnCA4ExZiLxGGSajv/ETFFoYdtAy7+05h8bY8xEwvjtccgYY0amlcfKlndpMMYYY4rMpMn+rTPFYFILm3hb3qXBotcYM5HYumuajf/GTFGwhXeUeBAwxkw0vuk2Tcc/daYgtPLTipaelgyYluzrD/x72L59O788pZByddnptLRHHA//MGWuDXPAeUx0YLzyXsEK0+VhdHE4IpQji5hof9hQ/XR/UQqL1zPh5Aeki3kPZ14+52AobN++wdLl5Pow5bTDh5n8SVK+XM5qCMKGz8uRYlhyDDFO6b+0PiqvxL7Sv1ivmKR0zPUYD5K4adhQ5ANRH6SU06RFD1GOy7mSqN6Cw7QtVa4P/y3FMF1L9hEFlHcxbekwph0KG+qLUt+n7RguN0kPw3mk10r7NG2J/X2aXCP6MOXwGFa+UI4XczygDCjnESlfywmKJMfDbdNZDB+qG4cHllPa63Dov9J5TDBEOWg4bmToeLgpMJxneafT0n74M4PMtWEOOI+JDoxX3g+XWfpv6pSp4feOOigctLjX05KZpsC0ZB/4+s/Cul88Ww4xpn35xtuOCscsX7R/PG4hWl7w7t69Ozz//PNxz4/aSOiHT52tNPxYMcE3EMY5+/S6jgXn5JPGz6I4ipeidDpOUTrIS0sY9a1Wr/S4UhhwzKb2Z+OlZMOUbqR46bmO8/IHwiGNLwhjU5lsXE/z4jjtl/RamjalUjgovfaKSxnsIU2XlpdF+UA2XrYc8t+7d2+8pnh56dmrvbqm+JDGS/fptZRsHkpTDfVFmjYv7zyIl/28hNIrL52r/wnPpq9GNh+lUf0hzS+9rmPB+dSpU8OcOXPCzJmtOZG6aX8QvH95x8Ph2/9uwWvan7VnHdWy8/C2vOCF9IepnaENeX8Ealsj/kAqlVGJNH6l44lgrOXX2q7xaGe18kWt9WhkXqLe+DCaNHk0Kp9mQv1avY6mfeGm9+mnn46bbir5e0v3oL/BvPBsGpENZ6+bP8WrlEYoDfv0OHtN5yoHdJzus9d1I5oXV3tI02ivtJCGp+mFrqvtad5p3DQc0rzY61jx07TZ45SR0utzEZxDNi5wrrzS/gNdUxrIXktJ46Zp0/A0LA+uUd9p06aF/v7+0NPTU77SWrSF4DXGGGOKys6dO+MmJDREKjQ4RuTkCaT0XChtKl5AAiZvL9JwnVNGNjxNI9I02etKm+4hGzd7jS0VeNl8sqRpRRpX14H+S8+z8dS/hLHpWKRpIU3Lsa5njyFNSzlA/tnPNBu/Wl5pe9incSGbN2TjpOSVlcI18pw+fXoUvq2IBa8xxhgzwVQSGsa0C3lCuJWw4DXGGGOMMYXGrx0bY4wxxphCY8FrjDHGGGMKjQWvMcYYY4wpNBa8xhhjjDGm0FjwGmOMMcaYQmPBa4wxxhhjCo0FrzHGGGOMKTQWvMYYY4wxptBY8BpjjDHGmEJjwWuMMcYYYwqNBa8xxhhjjCk0FrzGGGOMMabQWPAaY4wxxphCY8FrjDHGGGMKjQWvMcYYY4wpNJM2bty4r3xsWpR3v/vdYcuWLfH4s5/9bJg7d248zlJrPJPPP/zDP4QvfOEL8fhv//Zvw8DAQDw2xhhjTHtjC28b8IpXvCL88z//c9w+85nPlEMP5Nprrw3f/OY3Y5zXvOY1Fruj4LHHHhvu5/GE8t7//vfHjToYY4wxprFY8LYB73nPe8Ly5cvj8U033RReeOGFeCwQSVgngXgf+MAH4rFpD/j8vvjFL8bt8ccfL4caY4wxplFY8LYBWGv/5m/+Jh4jdv/qr/4qHotPfvKTw5bBNWvWxH0KabjebOvhaMpQ3bIivhLV4tfbznrijoVGlVNv+4wxnQmGkZNOOiluHFeC3xLF4wmhqQ/GYvVfpaevpnWw4G0TXv3qV8cNsATqsTtfOM4B14e3vvWt8Rj+7d/+LbzlLW8JRx999PCXkg33hyzEW7ZsWbyeJe8aIpswNupCHK6n5WehnkqDJZPBVnVjn/dIX2WzZ0A+8cQTY/xU9Kv8bDtl9c6ifknj5vUJUB/VmTZnqXQNcUqeaZ2Il20j4YQJtTete177OK5UZ2NMZ/P2t789vs/BWMPYlGcg4BoiTePR61//+rg39UH/seX1cTPRb8GVV15ZDjEjYcHbRsjKCxI7qdD6+7//+/LRflEnYSyXCA2AqcgaK9RF5dTKJz7xiZfdESOIEcx5AwdhfLGz1xDBldr5Z3/2Zy8ThYSn8UF98oMf/KAcMjao4+///u8f8EMjn+pqbcwj/RzJg5sa2kh68vdgZ4zJwlgh1zbGijzrYzp2VDIOmNaF3y02vahuRsaCt41A6Lz3ve+NxwggBixZd9/2trcNiz1gxgYGOga+L33pS+GHP/xh2Lhx47AFlnSNGuQQZR/+8IfDvffee4DorgZlUy/qRN1UL77AeYMzZagtlKPBXIM2bVc72WQNRxSm4hahL7GJ+8fPfvazWAeO03hjAZFNO4DPizLY5G6StpG6pjcy6hP1B/UH2v7tb387bqTR3wGzStQqno0xnQNjBDfIgFuDxiRg/JcLQ/a3AxhTuM7G2JsHccgzzVdUuqYwjVmMuZRRbQzLpmFPGtLmpSNMaXSutmQhjq5VamcKcei7kX4rVL7qkJKtXxauU47amEXpRbX8CFP7GvX71s5Y8LYZCD3ED8g3i8EqfVGNP2z98X/kIx8ZFn/AudJrCq6xQp68WMc0XhpgR4JBVvWi/mm9+HLmgZgmDeWQhoFH7URMpvkxLZuQuGRg0JeeuGlfcpz201j41re+FffkhyBPy0jbPRbIV0Ja+RtjTAqGCGDs080zpDfS6W8H46ncpzCasPG0ikfnWUHIOK3H6lkxVemawhiTeQJHWZRRTWymafjNU91Ii4tb9iletmzqr7YItZM4uqZ26jclRfGJg9FEaSu9ZEwcrstwkZL6TWehLbRJdVY5qR82/ZCmVXvTsvLap/NahH1RseBtM7IDFKSzOEA6wBxzzDHloyFIz7Rl0Kg//GwZtYDwSxmpXrQvbSM89NBD5aMQXve615WPhiA/iW/ll+ab56+m8scCZWjAzMsPay5W3OxnWAkNbPxgaRBkwOMzpo3GGFMJbq51gy3LZGoowAqscZUwRJN+Pxg/lVYCqlG/GdSh3ieMlC0DgsZ2CflKL+alT9vESO1knM2mSeOrfOI00jUQIUxbaBNlUCf2lEO71UbC0t9Cnafzxqf1JR9+74hDXnyO2fZ1Cha8bUj6qIo/dgRvJXp6espH+yEN8MVqBHlljERWvILqVSup71Je2nQgz5JX50YsNJH2aV4b64XPWq4Q5M3dPAOj7tY5N8aYSnCTrfFRogoYn9Ibb8I1VmIZxn1KbmKkZ/xJXxYeC5TD2CaXMv2eVYOxTm5ocu9Su9SmLFhg5SZGOkjbyQJDaid7oJ2pkE1vEBCOuNQRl35pFIhTPYlUGaqT+kZt5Pc+LZv4nBMfyCttH+E8HeUGg8+c375G3bi0Gxa8bYq+6KMRm40SumMh7wtXb73StuellSCW8ExFcZ6jfyPmwB2pjNHAjxKDNW4a/Eik1ggsvrqTN8aYLIx/jBuQPoHSjbRILYKpESVNT5xGiCVEWurulY6blcgKdISg6sX4nzcOpq5ulEE8BCxQh9QNIM2PvPSboviQ1pn6cN4IqpXBzQdPRKlvLb+R6e9O+lmRF8KYjbw6EQveAqIvOKRfJKEvQRpP8GXJfqmasRhCdtBkENYsCbXc7UPqSiG/WUF+GgCVH194kWcZzZulIRXV2TrnDbCUocEqrwwGM6yztQ6UfBa0hc8Ftw3Sccee/lg14/MxxhSHrNtbVuwxxkgI57lipWNt6ko2Wmod41Pyfq/SeuWNg9mndukYPlJ+Gt+VL/HTPoTRtCMP1Yv8smVQLlb61FJfDT4/5ZH6PGMhzvvN6iQseAtI+sXkD14DGeKJR1I6Z65Gceyxx8Y9cXicwxeQLwdfFMVvJNRLIpUy8bWS0M7691aCQVsDQOqrRT6poNTdLHE1yNG29GUHjvMGA9KkAlb9Sdw8/y3iplaCtAzSshGuPLNkhbvmHc5+Dvv27Ssf1WYdMcZ0LowRqdW2mhtcHqN5ktho8uowlnrlpU3Fpn6PqpEVp6NFZTViLCcP3Bf0W0fe/HbxW4Sxha2WthURC96Coqmu+MNGMLEhnuQnxJchvcNPj/ly4LjPFwPhqy9OI+FO9l3vele8+2TTCwwMILUKXr7YegsZMZi2U9ZVxGfaNuJrUOGOl0UeKJ/jSu1MH6MhpCmDvqkUP7WmkK/aKBHOtbROqXBHEKcLT6hsPgd9Juzlz0Ve2Rf2jDEmSzUxlYq/PDGUPiavlk8zyXMRq7deqcU3z5CTWoCz1uE8C3Iav1by+ld1b9TTOn4XeBKIK5yeCOo3CYOLfj86DQvegoIYSx3e+XLzReOLxR+/HNwF8XBs15cC8sIaBXVAjKZffuqM0KtnQEUcp3XMtjPrOkCbaHu2TfKTyoN6pi4EQF0ltrNQNu1QftRH7VQb0/KJzw1KGqaBlLJ1jTwYrLhGGvLXixbGGDNaGE80/uRNV5k+ecqblYdxKSV73ggwYqS/F5DWq5aXjmkjbYU8FzYZSkC/nTJs8NuSbVelxYrUl6RJhTX1zxPJciPJKwO3RBlzsu3PQ78TtIW2Un8MJ/juqu0//elP477TmLRx48b9z0ZNIdGXTIOa/ugrobvMRsxakMIXV24AiE6+iKobg8tI9RoJBgvqThtrqbsGnlr6BKgrG3FrrWsj+558VH6tdTbGGMgbf1Ow+skFi5tpRBKWX546ySJIuJ4eMt4iwoCxiLnU58yZE8WWniRCWhZPrwADQvrkrBpKAzwNIx3lUYbKYTzUzAX1tJO8aBPtJEz5pe2kPTxZA8ohnPGZ8ZhyGJMhbRP5aEYL0sjwQtn0m9IwewSkfaky+E1UGVxP2wg8NdTvAS80sydN2j7KTV3s1I60fZ2EBa8ZN0YaiIwxxjSHWsZfFoOQO1UWBFf26RTvFqRWUYGgojxolOAlD930pyD0eNKleo3UTtLLXS+PvHZW6hfEJDcEkLaJMvLm8yVPxLKsuBK8QD7ZJ5KCNtIWWZ0hFbZAO4mTLZu0CPr0PO2vTsIuDcYYY0zBQfQgcqoJHeZtxVUrjYNAQszliSSshIg+4gCCDBczvceQja8wxa8H0mVFn0ReWs5I7ZTgo01pnGrtpF/S+IqLQFVZaZs4RiBLbHPOMWG8IK40KXJfSwW60mXbDfQxNxYqVzcCKptrlEE4YpdwwjpV7IItvGbcsIXXGGPag1RATSSy8DbrMXyrtDML7m2NcCts1fZNBBa8Ztzgi5d++fwFNMYYU41mC17TOdilwYwbCFzuWNksdo0xxhgzXljwGmOMMcaYQmOXBmOMMcYYU2hs4TXGGGOMMYXGgtcYY4wxxhQaC15jjDHGGFNoLHiNMcYYY0yhseA1xhhjjDGFxoLXGGOMMcYUGgteY4wxxhhTaCx4jTHGGGNMobHgNcYYY4wxhcaC1xhjjDHGFBoLXmOMMcYYU2gseI0xxhhjTKGZtHHjxn3l47Zj9+7dYc+ePeUzY4wZPTNmzCgfGWOMKRptLXh37NhhwWuMaQizZ88uHxljjCkadmkwxhhjjDGFxoLXGGOMMcYUGgteY4wxxhhTaCx4jTHGGGNMofFLax3Ez372s/Cxj32sfDbE3Llzw+mnnx5OPPHEsGzZsnJoY3nhhRfCRRddFMu6/vrry6HGtBZ+ac0YY4qLBW8Hce+994bzzjuvfHYgiN1169aFOXPmlEMaR+lvLJx22mmxjLvuuqsc2hhuvvnmsHbt2tiuCy64oBxqTP1Y8BpjTHGxS0MHcsIJJ4QNGzbEDQF61FFHRVGKeGw3tm7dGuvO3hhjjDEmj8JbePcO7gvPbt9dPismM7unhFldU8pnlZGFF8F7yy23lENDuOOOO8LFF188HC6r6fnnnx++853vhPvuuy8KYyy0uobIhLPPPju8733vO8AdgjjXXXddFKGEf/zjHw/nnnvuARZeWXzTelx44YXh4YcfjmHKr1p5V111VfjqV78ay8EyjctEmlYoD9pIfNoDtO/yyy+PxyCXD10/+uijY3+dc8458TyvXyjriiuuCP39/dFtg3oSdsMNN8QbCZH2CXU944wzYrpmWNTN6LCF17QL+/btC3v37i2fGdN8pk6dWj5qXzpC8G7etqt8VkxmlQTv7O6R/xgrCd5s+Kc//ekozhCQCDkE3DXXXBO+/OUvh6uvvjqeI9jwzUVAci53iK985Svhsssui/kiTomDMJT4leA98sgjDzgHRHEqrpUX+SI6s+UhOj/3uc9FoYo4RWDmici0PcTh+p133hmvIYIR0AhVyqcMyiIOZRFOn9A3lfJRP1EH6k8awu6///5YhtJRb/qE6+Sd/RzMxGLBa9oFfvf4/TNmvCjC+GiXhg4HsSiBimBLOf7446OwxFqJuMO6CYg0LKNYbiXgEKeAkAOEJ9dJi0V0NCASgTqoPFlbKZOyeeEO2HM9K3ZTiEPdqZPajEVZUAbCnj0imPyBG4KUNB9EKyIZ/2HKR6xTB8KoI6QinXzVb4hjNmOMMcY0FwveDgSRhYWVbfXq1VGYIXYRYylYcQXCWPEQb0KCU8KNeCCxCBKp9UBZbJSVloeFGVGZugvUSpqPxD3CFLjGTBU8KsQie+mll0brcR6IXKE807yx7grEMu3Awo0LBvmyEQaPP/543BtjjDGmeVjwdiCIMwSpNiyaWCyrWUcrIXEn4ZjHaPIdbxCgZ511VvTDxSJLe7IW77GAkJaIl9hFOE+aNCkeG2OMMaZ5WPB2IAheHqtrw+VgJFEqCyZiDWulkEVX4lACWOGQHqek+YCEIKg+xEnjYUnGApvGbQS8VEaeuGJgQZa7wlgZGBgY3nNTkd1SS7gxxhhjmoMFr6kJhKz8VRGciFAe168t+/XKbUECjtkOELps8pdNkZ8r8Xj5jMf9qYhNy+Ma+VAe7gDy7QUJY9JmfW3rQaJaLgbkJ3/kscCNAu2g/nKRIG9mqcClJPUhNsYYY0xzsOA1NYM1GAGHcDvuuOPizA6IN3x/5VOLtZg4CDz8g9nyfHjlL0xeuBEwo0HWoqryEJ7kk5Yni/OZZ54ZRS9xuJ61GteKrNxqm6ZNawRqB+IekUve2X4zxhhjTPPwtGQFoNZpybCWahotvWyWB2IVyyMCNE/0YZElDvngypAVqqA4vAjGdQRptlxEH/EI5wU54hPGsSy3MFJ5ygdIm62z2oO4TF9Wy/aF8uGallrGhULplE/aL1wnXRpGHgjvetthJhZPS2baBU9LZsabIoyPFrwFoFbBa4ypjAWvaRcseM14Y8E7wVjwDmHBa8zYseA17UI9gpd3G9L3HkBPtkYzZWSt8DQLNy6eZjETkGlvijA+2od3HJk8eVKYNWN6WDBvTlg4b26YO3tW6O7uKl81xhhjGgsuV7hepRvuVbxMzPsEo33vYSRwDaMshG+j4eVl3ofQgkfG1IIF7ziAyF0xsCQce/iKcNjBy8LyJYvCwJK+GHbUiuXhqJUHhf5FvaG7y1ZaY4wxjYcZdDZs2BA3Ld6DGK4kGvOEcC3iuJECejzzqrWsvHiNyts0FwveJjJ58uSSsO2NIhdrbqVFBrq7poW+BT0l4XtwOLh/ceia1hzhu/XRH4Sn7735gG3P9mfKV/fz3E//Mby48YEwuOvF8Ohtfxp2PT80VVdeXOKk+T3z4y/kxqsH8tnx1M/LZ/VB2YO7XyyfGWOMycILtlryXRZYWU15wRjLL7PVIIiBqSg5ZyNOulqkYC5zxdFMNCmck/bcc88thwxBXMJT0ryy5ZFeU0Zipc6mFWl7SKO8aEsK1m4WHdJ1ZgTihWaR5qN41JkXmEdqc9pvbLh4WPxOHBa8TWJ6d1c44pCBsHBeTzmkNubNnR0tvosWzi+HNA5EJNvUWQuHtzyIs/O5x8Lkrplh8e/919A1byAKycf+8fKXCdHB3S+FbY/+czwmvz3bng2/uevaMYlO8tu9fXP5rD4oe/vjD5TPjDHG5IHLAWQFGAIPQYyPL76+iDZ8gDm++OKLo6UY8cd0kgIrMcu+A0KaGWgQd6OB8siL8shL5VEv4FzTOTITDnWqBvnJZxloCyIXEKi0gz3TRJIXc7FfeOGFuf2CP7Is48QhL80MRJjqCMwfz3XSkC/xmPaScDMxWPA2ASy2hx7UH/ejAUvw0r4FYeXypWHK5MYuPYsonX/sHw5vEr3P/OgLUdA++6MvxnNA5D7z4y/GPVZXePKevxu2+KbMWfGamN/C33lbjL/rucdLeX4xxkeEbtlwZwznmHLYcw5pONZl8dJTG2KYePL7N8R8gGtKQ90Q2Fwnr2d/9A/D8YwxxuwHIZcuGoQQS0FQsgokq00iiiV2CUMUMq84ghbLsIQjceCaa66JL6gRh3zqReUB5SkvxCqCEqsqL9ohIoFwzeleCep6/fXXx/ZIHKvekF4jL/XHHXfcEfeC69Rl3bp1wwKXdITdfvvtMQ4+y8A1+pd42X5DvNvKOzFY8DYY3BEQu1OnTCmHjJ45s2aGI1YsD9NHKZzzQBAiKrUBrg4vbnww9J14QZgye2EUq0KiFDELfSeeXxLJC+JxHghRwDqMCN31/GOh54jTw6yBVVGYTp42Myw9bU20GiNYiUM9KIfyJ5X+pah8GNz1UoxP2FP3/PfQPX95WPx7F0arMwKX9Aj4ea98Y5iz8tXlVMYYYxBaPJrn0boW8UE8ZoVpOnODVp7Eqol4E7KWpgIPFA6jmQFC7hUIw7Q8hKX8juuFvESaJ3DOnOu0E4s0FtpUDKcQTygf7bkhSHnooYfKR0OWYW0Suuo3M75Y8JZAnC7pXRAOWrooLOjZv1BAvZDPyuX9YdrUxvngdk2bFn2A58yaUQ5pPLgQdJXE4/RFR0RxmidoZQlGyCJas2DJxdq6+d7PRXGMoAXSzSyJXfYI054jyX9haX9GFK57tj9bEtiPhdkrXh3Ln3fsG2O6aux87j+i8F3w228r1XsgLHv9n8d8Va/J02bk1tEYYzoVxBnilg1XASyPckOohIRsVihK4GGRlWtEVvS1A4jbU089NfoCa2n6bFtHQ2rBpQ+1sRARAjxdkMiMHx0veLHIHn7IQFjcOz/ML4nd5SXRy4tjo4GZF0brxlCNKSUhvWJgafTvHSuITbkzyGo7uQuBODZBjVDFwrr8Dz9WVbTykhvsLQlW4Bw/YARsvSgNll+EszHGmHwQWjxWZ8NVILV8VkKuA1mLpM65jtBFwCF8U6FXaToyiWghwQwDA0OGElwXUvARxhc3m3as4FNLnbEg46pA36jNY0HtIC9uLLJbLX1vGk/HC94FPXNfNisCwnLm9O7yWW30L14YeubMKp81Hvx6sUD3zBmb6MWqiguDNkTjzGWroksDll58efN8dMX2jT/OFae4F2ChlSU4D64/92//GN0env/J/45xCcO6++LjD5byfiCWL7AmAzM/4PagF+ZmLDoyWnDxESYNrhFYiQXxUlcIY4wx9YNgQ5whNBGcPPrHEop7BMjfVW4RzIaA0M1b7AJRzEZeuA9gXc2+HIZ1lfIQwZSnvLDAUmbWiowwlmV2NMjSumXLlrgnr0a4G9AG2kIbEdVA3pqRIm2zGT86XvBOnZrva4tVtVZmzZwR+ubPK581D0Qv05zh2zsaEJdsCEJtWEZ54QxXBgTwtNl90VUAAYvVFzGKBViWYfx7Ux/f/XFeXifKQpyKoRkflofnf/q/4zm+vEDZxH1hw52xfPKbNqs3dJfiLizVhfLW/eO3wlMzXjlUr1JZuDFg2SUN9ScNEB+xi++wMcaYsYHVE/GGgMVHF/9fhKLC4YILLojHCFSm9SJO1ocXsaoXzBCBzI6AJVR5iLQ85UV5pJVAVd7koxfRRgP1Bk1vRlnZ+owWXoYjL8S98kbsp+0w40vHLy08b87scPCyA10YBvftCw//+3+E3SPkDVOnTg2HH7ysaXPn5rF3797wy//YFHbsHGpXJywtzJ0xA9toXoQwpha8tLBpF+pZWhiRhdUS8VXtUTpxiCvrZBaslQhahCvjcJ5oIw55YBnmBTPmsyV++jKbylF9SIPFM/vy3EjlqV2QTQt57VGatC8IoyzAYo11Gcux0uXlozDiq16yeqd1oV1Ydkfqt3agCONjxwte4IW1Rb3z4/wAe0pi8j82PRm2bn9p6OII4LfLMsHjDWL8l7/eGHbt3lOz4OXLp7dH0zdO24FqglftYkDJ+l/xCK6np2d4kKkWV2TTQF6YKRYWvKZdqEfwGtMIijA+epaGEk9sfjY89MtfhQ2PPhZ+9stf1yx2WT1tIsQuMBMEL7JNmVzbR4g/FNPR8BiJRysISMRfNeRn1cpwl83qNzySwn+MdgJ31JxjWdB8itxp80Yu7eIa+xTywqeMNKygo7BsPsYYY4xpLyx4y+zZsze6CODOUAv40y5b3Fs+mxhYzW3pospz4gqEHv5QV1xxRVi/fn2czxAkDhG+vAXLhsADHtkoDPEIiqfHVkLhhCEKSSsoO80XiEOeCmcv8Z09HwniAm3iTVsJdNp25plnxmNBH/AIirdxiYv/V1ov8sKnLJ3rkTjko0dZxhhjjGk/Ci94EaZdDZwXVyztWziufruVYOnieXOrP2ZHBOJ/hGUXEG9MjZK+Wbt27doYD8uv/JNg06ZNceMcSyp+SghD0iBKCcdqSjjWUSytEqFMtM258pWPE3M/UhfEJHlgaVUaxDDCtB7XAdwTgDYiZgFBq/YK2swLEbCvfGOjtMALDEzXk4Zxns3HGGOMMe1F4QUvj/6PPuzgcFD/4oYJ1PlzZ4e+BT3ls4lnpJXYEJVZCyXn8mFFgCIGEXcITayyiGGEH4/y9Yifc+IqHuJU4aRHbEoskgcCl3DEJ/63sigDIpL4WFOZBF2WWV5y0FQ3I0EZiGasxQhquSGMBCIdIZ59W9b+ucaYosG0jkzdmG550zayEuaLjz8Qtj/+4/DobX8a4zAFZV5c5k9P86OMsUwFqfyqTYlZjbGUbTqHjnFpQKQedejBYemihRWnIqsFBHR/KY92AiGXncgb0acwLKzyba0EopkXtxCKbAhbrOeEpy9/SVjLQqxz9gqDVIDzAh1WZYQrewRwLVAucakLltusC0Me1AHrNC+/jWU6G2OMaQc0jSRTN2pjqsksTFPJgkBMJcmUkUxFufO5x+IKmllByWJBxGcO9ziP++MPRsE6WpSfFiaqF+pIemOq0VE+vMzCsGjBvHDEwcui/+toWLoYwdxeU4AhBBGTWENBog+LKFZSRObdd98dLbGVkEUYiy0bFtrstC3aQCKYa9qnwjiFfNgQ3MRJxXA1ELqIeeKrLtWoJHYR7fSDMcYUEcQr85VrY+EeRCwiFbHIwj5i5/OPRWsv11kqHoiXZ0WdNbAqLuu+4LffGq+zPfn9G+ICQhu/+dFoMU7LSfNJw7ds2P9yNBZmwgXH5ANbNtwZ47M9+6MvxjDFZXl7xTMmj458aW3atGnhsIOWxVXW6mFBz5wwf4wrnU0EiEEe3yMomamBx/+IQ8IkMPG/ZZNLAuBugEjGFQFLKoKRtEwGrjXYCUd0Es4MEIJ8yR8/XuLjslBt3XbqWI91FxCp5ImYZ2JvbZWgLrQBf2Hqy4aVG9cMBDzC1xhjigbWT0Qsm4QiIhfRufjkC+NiPhKioGMtE8+y8dVW0dTS7liOWRCIlTtZqGj64iOiIGXBIKzGXfMGYh2APS4TWoBIYO3N1gXLM/tnf/zFksA+Iyz+vQvD1kf/OWz5+Z2xbtB34vmxPGMqUfh5eKdMmRr6Fi8pn72cJzc/F5585rnhl5gq0d01LRxxyECYXOM0YOPJtq0vxG0kEHtsCNTU2qrwNEz+rLLMpuccM5sBe7k66BwLKvHx8wXEqNwelAdlyTorEK+ITmZbyLPUIk7z5uElryxp+rQs6pGu2w66Rj3VfgnftH55dTbFwvPwmnahnnl4EZxaQh4Qt6xuiQV25sCqKEzh119+f1jwO2+NwvaJuz4Zlv/hx8Lu7ZuHj1PBi/jEykoYApf8yQeBTHmEI0QVb9nr/yKKXay3T33/v8f8CO8tiVQszoqH+KVMVuMkDhBOvnFlzZLAVXgKPsekZcVO0xw8D28BWNw7Pxy6vD/65lZixvTucOhB/S0pdusBIYglNRW2oHDEnDahcKH0CkPsInKxnrJHOKZWWuJm86C89Pyqq66K1mHS5YndahA/u6VwrrLYZ+PqWtonhKX1gzSuMca0EyzpjiBlQ+wKhOpYQNSyzPvBb/6bYWtwHvLN1RL0WIJxqxBYcCuB0BVYfwWuFwhlY2ql4wUvzJo5PQravFkcembPGlEQtzuI1loe5xMvC0KR2RaY1QHrK77AiMN6YDowzRJRCay/xxxzTPnMGGNMrewqiUNcGLRFi+/AqrDt0R9Gv1h8bvOQQN366A9yxTGWXLZUvKZwDasrZW7f+EB0SaBc4nfNH4iWXPJ+oVQHMW1WbxSyzPyQ1mvOileHsG9o1gnSPHHnJw94UY0wC2BTjSlr1qy5snzcdvBYZ3BwsHyWD1bZWTWY4qdOmRJ65syKC1Dg3MBUX0w9xowMrW7Z3bVrZ9xGC9bVp59+uupywzzSZ3oy4mQFLY/6V65cGcVvd3d3ObR2SN/X11c+y2fVqlWht3diF/owxaara3Qvshoz3vC7N5I7n5CFFOuotplLX1Hajg17X9oSdjz98zC999AwbXZJnC5cGQUn4pYX0jieVPoXZ2QoxZcAhr07XohxJk05cFpMyuuau7QkaJfHc2Z9QHC/9Jt/C929K8LC33lbTDNr2aqwe+sTcRaJ2QcdH8NmLD4ydC9cEaaUBDHh3QsO2l+vuUtiHZgRYvcLT4Y5K18T5hx2SiwDYU0d8RXm2DSeIoyPHe/DWwRq9eHF3YAX1xCviFam8tJCD4CFFisrL6kxhy5CFJHLy2e4K8h/9/Of/3z48pe/HKclIz75cZ1ZHriul8NITxnpymXGtCr24TXtQj0+vMY0AvvwmrYCsYvQxQVBc9+++c1vjmGIXYQtophNi0UghpnJgGtwzTXXxPjZF8AQuJwzAwLXKIMFJLSCmjHGGGPMRGHB20EgQBG5WGD7+/vjORZZzT7AhlsCL48hVDVvL0JWbgyKVwlma0AwUwZ3hPVMM2aMMcak8BSS3xRjxooFbweB+MTFgFkTsNwiSrMgdFlJTcK3FlJLLy+vMbUYZeAWgauDMcYYMxrWrl07vPS8MWPBgreDYGEJBg58atkkVLHY3nnnnfEuWmFcT1cfk1WX9LgsYPElDau1yRIM+P8ipEmfTvVljDFm4qh1Np52o552FbUPTG1Y8HYQV1xxRRS0WHdxPcDaC/jnSvTiy4t1Fn/f5cuXR4stLg9svKAmH1+sv7zQhosEaRSPcMQwZVDW9ddfH8swxhgz/jBes3AP4zUrbTIrD+9cVIMnffwetDo8QVS7MLYAgpa53Vl1U2F6sZpVP4nL71sWjDdc01PJNJ+8p6Gm/fAsDQWg1lkajDGV8SwNpl2odZYGCT3e18CwgYUTwYtRgrnPgTDiYQQhnGOeBnJOGs2yoyeA2ekrCcfYAYhExef4oYceGs4XFJd82FN2ep2nisy3nr4nQv0xwujFaYFvLy9W40JHfsTjZWlELue0Q+1GuN5///2xzVzjBoBj8lVea9eujcfANfLBoEM+xJOBqFPxLA3GGGOMaUkQkAhPns4hInEzQ8yx2A8g6rB68kQOEYjAk8gjrWbZQUyyKR55Ase6xoawBPI99dRTh+PL7Q3LquIy+w/XdU3LyyNIa4E6IJoRy7Rr/fr18RiByyxDEuFwySWXxHanQjrlpJNOitclvEELIqVhpr2x4DXGGGMKCMI1K/IQcLgBAEIRqyjCjjAELu5phGMdRSgTRj6soikByON/hZMeK6uEIYIVIYsLHfE1vaXAWoo4pTw2vZDGS85cq0VgUgbx2eNuIGEOeenpA/UDopxyZN2FPCGcF2baGwteY4wxpoAg2mSNFZzjSgDssbZihcXimgeiFmF51llnxXickwd7xKUEpvYqT4KSPemJD6kg5f0Pwtn0PkityHUCFwvcImoBcbxp06ZoATadhwWvMcYYU0Dwh0VspjPpYOHE6kr41VdfHcUfFloJyCyIZlbVJA4bLyLr5WQJX9BeltFseCp0BW4HCGLqRF5YlWuBdIqLRTq11lYCsYuoxuqcWm8l/k3xseDtIBhQdPc9UTD4tdKcivTHSANeM/qNlzcqWVSMMaYRIATxacV3VjMUMP5q9hxEKO4JEoOCdJzji4vVFYFIeuKxZ+xCcBIuCzECGhCjlElcNsrOvnCWglsDM0KwT4VoNSiLl+8oSz7BbBLXWRDUWi6fF/KIixsEfsOU67G4Myj8LA2TJ08O3d3Ty2fFZM+e3WH37t3ls8ow+DAgcIc7UTDoMIhiKWgFGPTwL6tWH72t28h+01vQ8pGDeh7njRYGeH5cKNcciGdpMO1CrbM0CMZ9CVoJVVB4an2VtRRhjGUXQahzbvzT9Jxz847PL6Iy/X0hX87JW3kSRlriC9IjokmXZ6lFnEq4CwRv3rRpad3SslSXFM0VT7tkLSYebVKbgTDIq1snUYTxsfCC1+ynmuDFysldLgOABj9NIcM1TR1DGHmk8RBRPDpjCpqenp44kBAG2SlsGEyIR7jyZ/BiS+MSjzwYsBSu+JSb5kN9ON+3b99wPkqf1jNF9SNtKniVL6jcrOCtta9EXltUZ8L4XEjLgJ59rKi05Ed5kJYF5ElYpT5M64m1hQGeR5lpXGPBa9qHegVvM2C8wbKLWGQ84sadF9VwMagVxiLNiVvJ6JAneM34Y8E7wVjw1kclwYugw8cLYYSww/qHj1b6iIiBDCGYxsP3izthJuYmDMGJECSMdBzjK5YOVKlFlfyBgRNxBrzxyzkvSEjIMdgxByKDK4Mp+ZEPSyBv2LAhtouBE1FHmcQhnfLMDqR6vEWdiUN5xEEcao5KwhnI6YtU8NbaV7IQEMY18qQcLCa33357rDPQRvLkGhbe1PJKG/kxoP20i3LY6AflRzjXdUydeVxJf1CG2kI6rmFZVpq8G59OxoLXtAutIHiB8Y2xhvGHsYxxpR4YQ8mDsUmW2Sy4XLAIUmp1NeNPEcZH+/CaA6aQQURyLrGIsEMMHn/88TH885///HA8BiKByESsYqHkbp9j5lRkQBsJTYvDoMkE4GwIQ8Qf4bU86mewVZk86uKYOjKYSogCQnjt2rXD7UgtqohLBl7SIrARtojDlFr6Kh2YscJSvtrCDUCKXriQuE4hP9JwY8H19MUThCz1VFlqL+0DRDRzT6ot1JPPBeFLWvI1xpixwFjCmIIRol6xC6RhDKwkdoH5cC12TSOw4O1wJAYRV4BwRHiygQSh4mEhxMKIaEzRgIWoYhDU8UioXNIQn3LOPPPMWC7lYB2V+0E10vLT4yzZdqWDNMJV59rLvQFq7asU4jKg0w7aU8sNgEC8YnEmHVaUlLSP8/oboc4NCWmx9NInqqcxxhjTaVjwdjgIITYJO1kIs2JRogprIVZMLIdZa+VoUHmISTbNp4jFAHcFxGJqRdVe4rNe1C4Jz1SA0kZZdJV/Or9jrX2VQn2xzjLROpbaPKtxJYhL++lv9vVAW7C8kBZrLj671eppjDHGFBkL3g4DgYfVTxsiCHGJIMKaqClkEHYpioe1kI1lI1mbfKwgLLF+4rOLSEMcUkfCqA/uCVhJqQ+iDxHIG71Zi2etkBfWW9qg6XUEApH8KZf64EqRWoBr7asUrKqURXzcDGhjNj5htFMvbwjKw9eY9PW2l7aQH+XSl2vXro3lIuDV54AVOHWVMMYYY4qIX1rrILBIykIqJOgQmQghxJfCiI/oIkzkxSNMojRNQzwEn1wAIA1DdBEPYUk4YldikHPyTcsBwgD3AcQq1yqVyV5xsiAglSatY165aZ6Q1wd5fSWIq75XG7PxVZ9sXfPqqfqxVevvvLaA6s8NBC4quJDUa0EuIn5pzbQLjXhpjfGXG2PGpErgTsa7ATwlYhwxnYtnaZhgLHjbGwle3CTMxIAlG1cL/5hZ8Jr2oR7By80tT3G4GebGFwODZoDh5liilzBuhrmBJowxgRtinj5xnXGaJ0Kk4ZybbfLlJV7gGmWl6U1x8CwNxowB3AFqmYHBNA+LXWOKDaKV2WIQqbwPgZuU3k3gu8/GkySu6UVc3L14IqWxQU+IEMQIXSAeebH/1Kc+FY8lhMnLmFbDgtdMGAyi2Uf4Znyx2DWm2GBx3bRpUzzGNQH3JcZdwtnLYsuLyLhbsSFi2QgH9nI3qwbCmukVec/BmFbDgteYHLK+zlm4PlKcSow2Xb2MVznGmNYFVwSELe4HvKic95Iq7gy8iIwFdzTjBk/r2EiPdTj7Aq4xrYAFr5kwePRVyxRdxMM3rJlQhmYuYCU2HgNWg0d4zJ5QL7XkPRY0owOLdxx33HGx3/gBq2Uu49GS9l0ltIqdMWZ8YXYYLLRYd1nAge+rYPxlfECo4s6AdTadTxwrMGgZc6y8+PSSB+OMQDBjEcZFCv9d8jOm1bDgNRMGVoB0tbZKIJSaKdiAwVqDNCv7jPQiHXGyK6PVQi15jwXaQFuYeYEljHFZYN5gVqBrFmnfVQLhnf7QGmPGB/x1uRFmCXjELZZYQJhi7UUQc8z3k5tk5j+XqxN7BDDjB+KYtHzfucHt6ekZjodYJi/KQPyqDGNaCQveDoLBjoGKQY1HW9ypA2KEcAardG5aWSN1TY+p0viV8mHPeTac/DlH6MpKoHwJo25sCqN84kscY7kkL8ExeSCIqQt1Zp9COWn5ah8iTX3BCxeCMvgRANJxnI1HXRRH9SZ/flj0SDBtj+LWknfaX1znWtYSntenKalFlWmFgHyy8USaH/EkYNO+Y6/0lfouRe3P1l9l6Zr+fowxjYcFgliABiGbTi+GyCWMG3f8eInDAjn433JMPCy8+PYSD+GbxlO+xFM48bjmpYBNK2LB20EgBhEbDGAMdhJn7HlUxUB1/PHHRzFCOBtChWlnGBS5gyc9d/DsiU8+sr6Sjjt9whkcyVfh5M+ASP6Ev/nNb44DJfGxBpAHAy2PxKgfIpZyrrnmmhiPOKShThJdwDEWBx1PmjQpDuop5I3FU4O2BCf1YJYI4qcvZKRlsEfcUSfiIrzVN4pDvS+55JLYPkAkUne1h/zpO/LJ5k1c8uYHIq0XkB/tIZ7aKNK+Vp9mUTlaES/9scuCOKVu+kz1uBLRTDnqO5VTqe8EZdN+LNrXX399bKegnVy/++67Y1nc1FC2McYY0ywseDsIRAdv6CJ6EBqslIZYQYghTDhmj7iSWOJlB4SO3tYlnLt59rK+khd7NsqQsCZfhSMIKRfxLJGE9YC96sA5QlHCjzCugeKNBMI8K+oQu/igIdIQcmofG6KN+NVmi1Cf8ViPtKl4A9IiGBHDHLNRdx3TXwhJjrPQr+RNHEHatMwsqjtCPu3rSqg/tM/jmGOOie3iM6WN2c+UvuPmh03h1fpOPn/kQ9vShS2oK+F8nuwBy7cxxhjTLCx4OwhZJgWCiXOEhwSKLIna54FIw/qIWCEd1kbBNYQQwhlhK5Qf5ckinCJBS1o2/Fxr8QOrVk+h+lFf8k5Rer2ckYf6LO27FNqpN6ERvVhzaUsaH9GISKyFNG1emVwH9VW2r0cDglSfKXXN+0z5PLDWimp9r/5UnJE+J/wBjTHGmGZhwdtBIGbwt8QaiWUQ307EE2KHicKxriLYKlntBBZYHnWTVsJGaWRBlaVW4eRLGEJKPp+kx2KIxQ8rLOkQW+xlURT4eSIYeQGDPdfZakFii3R6VJ+tl/xc80DA0meUl+0b8sYPlXpzjf5goz2E0Qds+NnWCp8TnwfpqF8W8qcO1Dvt60roMyIOApp+yFqE+XsY6TMlPX2R7TtcF7IQh01xUj9f/t7Ih3DKVX7GGGNMs5iyZs2aK8vHbQfLKw4ODpbPzEisWrUq9PX1hW984xuhu7s7WiURN6ecckq8TjiPnz/84Q/HcMQRAlOP2zdv3hz9OU8++eQomohPPOXDtUceeSQKJNJ98IMfHA4n7T333BPLwlJI+dSH+Pipkucb3vCGcOutt0ah+MY3vnH4MTiCiPKwAhJPohdRSf7kQxiiTK4XKStXrox1og6koQ8QWKov5VFXIP22bdti/YiDMKMejz766AFtpW/YUx/qR/6q9zve8Y4YRr/RZsr9yEc+Es/TvGkDdSeuLLnkR72oI+0hr9tuuy1aWIkniEP6bF8rz7Q/yItrDzzwQEyH0ETwpn1FGtLymZJWfwPqI8qh/rikUP9KfSeIw/n3vve92H76Rf1FWo4RwcSjT3t7e8spJ46urq7ykTGtDb97XlbfjCdFGB8nlX7k9pWP2w7WEveX3jQTrLe89JV1hWgmWJOxbmPpRZyuXbs2uhukgncs4KeL8NcNhRmiCGvFm86A3z1+/9oFbui5AW/UGNautHM/FGF8tEuDMVXASonFczxBjALuAFhd8c9t5ACJz29qjTXGFBducPNco8YTbuI1TWIrIBe1auBu1eh+47PgqSHwoi5PyMYDyqn2YnOnYMFrTBWY9WG8/UsRtzzmR+gyrVmjyyc/fHWNMcVHVsU8uKYXlrPIzQqqxUvDiZemE7ixZV+srRS3UjmVSPOplKfQdTaMCSnZcomT9hvntfRVCvHTa4znehmbJ3e4ilWiWlnKMz1OyaalnGrveXQKFrzGGGNMh4GV89RTT40v1KaLw3DMy8UsDINVMBsPocimhXaYQ5xwLKKkYcsuJoPYOuuss+IxcUlHnsSVECNPzpmKkbxlCeUY1y4gLumBOlIn5aN6pnmmqH7UI30hGusn4Wpf3kI6tfaVoC2UQ/y0Plh4yYtz4vNyctbSjDglDf2QlqXFf9QG8lB71VdqS5qWWZEoh/II62QseE38AuoLM1EwQGhQa3WoKwNP3p31SFTq67T9xMl7lNYqfUQ9qlkmYDwf1xlj6gPLpRbM0RzhCELBEyDC2RMP66zipWKS+bt5v4D8GA9ZoIY4I82rzRjCwjPkixhDmJEv7mPkx7LovNg6EswRT70Q3VhMyROxx3EKoo8w8lV9Ba4WuHiRD+81MPamY3utfaWXu4HyNm3aFMPz2oKVl3x4P4SneVlYcIl6pgslAWXQx5RJH6rOGo9pixZBok8Q07wkTDmUR3gnY8Fr4uwHzJQwkTBA5E0NpjviVgO3g9G4BVTqax5Bqf0M+nl+w2mc0YBIH0mopvCjRZosfFYj+bbxA1FPWcaY8UM3o3pxFXGUWigRgIxvejTO952xgDhpPAQZYyGCTu8Z1PK+gfJHhMFDDz0UXwxGXGKFRATrWjVUFkJQYzLHqaAFxCF1lChN8+aaXkpWHQgTtfZV+nuAyOQcayttSa+NBHEZe7EOcyOQtoX+hrz+ps5sGrdZWMpGhwOx4O0wsBBy18cApi/1vn37ht/A5JrCESwSNoRxzHVZGfkycY4AYs9jLIWlVsy8tKDwtC4pxOULzx1yWmY2jQSY2kY9VKdsXbVP68HdPHfR2XDCOCdv8hPpAMR1NkS5yhaqQ1pX+poNKrWf/BWHuuXFocy0jymH69m+YA/saTtpskKU+Gqf0lOHtWvXxv4nn0pk+y61jOhatu55/aJyUwt4XjxjzNiRxVHfK76rWSsk6Mab6QixRGqp9LGicrXHEIAYZZl1ymH8Q/A1Go1P6XiCwJSwT8d2UWtfpXCdttBX/f390VCRjo3VwEKN5Zy0tYh+IVGNaKcP2aiD2Y8FbweBIOFuk4GFL7isd+ldO/5L+mIjkCSOsLSShjtXBAjCjsGB+PJ5Ig4Chy8ecUhLXpRDXMolXIJGFgPuUPP8pjTYMmBwrLwYTNgYEAljIz15UQ4iSWUw0CicONRP9eAYPvShD8X20Db6RwKPdMSDdCUw5QWKw+Mrlc3ARt8xcFFvwqkr4cRXn6btT8VrGgdfLY6rxQHqk+0LUPvVl+Qji4DQ5wTsla/i0S+V+NSnPjXcd9RPfQr8vfE56W+N9hOW1y+qN3lhAScedeezIp7SG2PqhzGAsUk3kHyvEFMasxn3mAYxC/H0WJ3vJPHTcWi0MMZQFx7BM85gNeVml/EOay/jqcYf6qlxOR3z6kFWWLVf4yNguSV/2siYQ1xZUqHWvkqhnliquWln3MqOuUB9NOalEE66L3/5ywfUcyQYa2kLdcTKS1s5BvLEeKHPjs+ynryLggVvB8EfO19k/vj5AiMy+BLUCkKEtNw1MkAJ3U0CU15hDeALjuhj8OILz3UGCfkb8YWmfIUjgrJQR/LRgMOAyJcaAcxGXdIBkLwoG4GEHxPnpNfdO3Cd8tgYbIjLgMNsDNSNAY9wiSsGP66lA2AWxB5xVDbtZkChzvLR4hE/1wRxaD/pVJ8sXE/7iLxqhTRp+6kLfcee/hwJxaWP9SgvD9pM24inz1yoXdSDdjDA0rf0qfoFSw59JbBq8LdAvOzfKpsxpj74/rLx/dQGLBOOLynfK/YaX2RhFFh1+c4qHmMW30viKy/S6MaYuJpaUXAtHeOoD2F8t2UxJm82xC7XFc44wTnjFsfKR3kAe7klEC87VjKekZ/aTz6KzxhGuYz55Mk1SNtRa18J8qGfaAv1oWyNpaoz5XKehd9X6sjvbVpPylRZldpOfOrH73raFn6XqY9If+M6CQveDoI/cL5EfGk55gvEl7AWGPT4EiKauXNNRUo1KCctg4En/aJpwCR8JJSO+rPxhZZ4y7ajUrtUnq4rz0r1UHg18soi3zQtg2deXgqrVo6u1dJHUKntzUBWmjxrgepbrU851o1AWm/9jeqzrudv1RizH8QQIkibBCPfS4miVHghjtIbfL6j2XikJS99l0mDeAXGutQgAlxLBS+QFyIsHQ8URlx937muejPeKx/apTLZq27EIX4W8lHeaXzIKzdtR619lZLmqTamdVa7sn1VqZ7EVVmV2g6qZ9oWIJwwwDCh9J2EBW8HwR844oIvDl8YhERWjPAFwWqKVZC7QMGjEdJwp8qXrlbLsFwREEQIGFnuGJQoi3wJr/aoSuKHO1n21IOBhnANJLWCYFc9SEsd2PSoJw0fC+SB5Zg6smmKGKEy0vpkSeuWjUM4+TFw6bFVLZCGvLLw+fCZZz8H4qZW2yzUCUsFA3T2b4m8aLteOuRz529Q4WzUR5aKFP0IpH+rxpj2J7UGm/EHDSCLc6dhwdtBIB74Y2c+P3ylEKPZP3riILDwrUzvAIlLGt46xUqsO8WRIA/yxP+JtAg9zmUhoCzmEqwEd9mIKqaB4Q6VeiEeyQsRlBVZI4GoIy1Cjrtg0mO9RoTRLwg/Hl+NFdqGaKOubIi21BJAuQhFyq3U/mpxEPx8dvQHn0ct8JnR31mBTF0pg7xS6HuVkSeSQZ9tVtADNzX43uLzRjw+e+pAPxCfvyfC8ywNhEP6t0p6Y0x7k1qDzfjD74qejHYak0qiYeh18DaEtcRZU9yYkcBnGMsCcxgak0cR1oo3nQG/e/z+GTNeFGF8tIXXGGOMMR0H7lo89QKeIo7kHsY7C4pfD7XkPRbImyeevFuTfVJn9mPBazoCfMZs3TXGmIkFd6ZaxJ9czJpJKnj5jcCNqxpcH407Bnk3028ZtzEEL2XI3RDxS1+b/VjwGmOMMQUF/3sEJv70WCj1Aih75qTNhhNGfGZf4Zrmia0Unz3nhHNdZMOpBy+wEs57GRK9vD+QLYt0QDquI97SvInLOwO4qpGWfNPrkJbPXu8hIHJVntoA6Uu7qgvx2BQPAa44ab3TWYuoi8LVHvKmrkA47c/Wgb3CKCe9JjjP62uhNvCuDiKYNhPXDGHBa4wxxhQUHqcjsLD8IYQQVYAQQvwRzl4ik2Pi66VVhSPkuMYLpbxEKsso+fAiFOGIOglZwnmhlnBEGOmxQPLyKVZSXuSVYOWFZM55ARaxxzEQThqEHmUL4tAWwsmb+W6zFlTarXqRlvKB8gin3bRTIKAlMMmfdlA+5Ug0kg9x1I96KZu+IBzhi9BUvSW0s3kTn/4lTMKVtnNOvSibeFkq9bUgvfqJOgBxzRAWvMYYY0xBQRAiohBYzEzDFIISi4ghwpkNBoElKyhiiU0imbgILfYILWZaIR+OCUMYc4yYRUQqnPmzEYVMg0U5mh2AeGzUjT0iDesk+XAstwFNX1kN6kVdsvPZXnPNNbGe1IV2qe6qF/VhXwnyJA59RBq2FOpF/VlcSfPU03aErvKuNOMPeauPaS99jChOy8xSqa/zoE+4TtzRuGAUlbYWvNOnT49vDnrz5s3bWDdjiopEIxZXVqmUsEUYASseAsKrEogwNtJilZS1EbD4srEyGeJZ4eme61nIC2Gm9KStV6BVEsRMZ4iIJ990SkhQvaq1V32Ulz/pWRENcUoZ+MqyJ24aXyuC1spIZWqf9rWpHVt4jTHGmIKClXTt2rXRkvipT30qTs+IyGTjETzhPGJXWCV4fI4VlvSIUolVxBnhxx9/fMxL1kfClQbxiYuBkMUUwYhlE0HKhsVUog9knSUv+eym+VRC+eMaQV1JC7IYUy/qSr9UQn1D3GzfkHfq0kCe1JP88dslHW3B6kzckUDEkhdlkY59FvUpIj3t62pQJ8WhHuqHTmXKmjVrriwfG2OMMabFGRwcrHkOeh6xP/LII+Gmm24Ku3btim4NfX19UWzedtttcevu7o6P5RFeCKlDDz00ijcEE2kRjitXrozCWCLxwx/+cLQ0nnzyyeHGG28MX/jCF8LOnTvDBz/4wZg/4cQnHLEmyy8boo66vOMd74h70vN4/pRTThn2PcUaTRh5veENb4j1Iq/Xvva1sRwsnOzZaEsKZZAe4Yjl9ZhjjontoS9oB2IWYUr5tF3Cm3quWrUq+uFSJvUiH/WZ+oa2bd68ebje73znO2Ne5P/000/H9Pfcc0+45JJLYtw0b+pD3Xt7e6PvMVC+PqcHHngg9vc3vvGN6FJCW4B6khefF5+B+prryjPtD8ojnPrJL5h6kMdo6OrqKh+1L2298IQxxhjTaXjhiebClGj4HdfrXjEWeKkOcY045fjqq68O69evj1bdRoALCqvcZX2da6UIbl92aTDGGGOMKYN1dLzBWo5FHLGNBReLeKPELmDhHq3YLQq28BpjjDFthC28ZryxhdcYY4wxxpgWx4LXGGOMMS+jljf7G/H2P3nkrRw23jCjAXUxxcSC1xhjjDEvg9kMRpoGjLf/tYrZaEFkMgNCOiXZRMCUa9mpvjjX6nSmvfG0ZMYYY0wbUc+0ZHDHHXeEBx98MM7hystRgLj8+te/HgUdU25p+iuFI0KZeou9lvoVxLn11lvjdabSAk0NRn5MO8b0WCorpVK5vKClabsokxfHqC9xyYdpuZQ35TK9GNA2FqEinHSEq71KB3lpgXDKpB5a8pcXvID8CPv+978fpxFTuNIwqwLhwM0BeaT10Fy+Sqe6kv7RRx+N7Vf9SEP8tH6EUQ5TnW3YsOGAeo83RZiWzILXGGOMaSPqEbxYaHnrHwGJ24CE2x/8wR9EQYXA+uQnPxnnwOUa4bgosGAEQg8Rlwpe0rztbW8bFrsIS/JGKGLtpQzSUCYgYlOy5TLfLWWxFC+LOJAHIpH8iIPVlbljEYmXXXZZFLGIUIQgad/73vfGOXU1/y3h1It5bJkLl7qn9WIeW+WPwKRchKtEfip4EefMY0s9NF8v/cmcxvCJT3wihtPG1atXD4tT6kEZ1IPyEP/Ms6u6ki/hqh/lsjgH9aA82kf49773vXDllVfGulH30c6h2wiKIHjt0mCMMcYUFAQW88ki1lgOlwUKsDQiupjr9fLLL48rd+GWQDji6/rrr48LUWSX5AWlZZ5a4mgKL6yxCD3CWKgBIck5cQUCMy2X/BF3tUC9EIRMrUXZpBcsVkG57BGGOiYNICKZ5ot6sXHONcomHu0lPAtt4zrWZ66TBiFP2bSPOXPT+nOufkvrgRAWXCMvyiScm4tLL700CmLCbr/99tiX9LO4++67D2ivGR0WvMYYY0xBQUQh1Fh4gA3LI+eIKiymbIhQLKfsEXkSsbJ0piiO0LGErc7ZUwaboNx9+/YNlwtpXtXA4onYJd1pp50WxbNI56vNm7uWctN6AWFpW2qpB5ZowGJMPRCs6eIUygOxmx6nKL76Vv2jmwvis1E/oD15bTL1Y8FrjDHGFBQELtZNVu1ChGGRZKldRBWWRqyluA0gxBC9CC2JrdQyKRBfeXEkzCREKZfyUiGJyMNKi+UzLTeL8saNQRCGdfquu+6KFmKsx7VCvZSX9tSFuqn+KrMaEqn0J/XHBSN196gFlScLrsRxWg82PiPTWCx4jTHGmIKyadOmcOGFF0YfU0QoAg2RyTkWX/ZYKxFdhLPhT4oVVVbbFNIjIBVHghbhhgBEiJInopTzFNwqsGSSVuWSLoX8EX/HHXdcdMcQWEJpB3XGHxf3gVpBoKpepKVetIE9fUJZlWZi0E0AadVG9Rv1kVCtFVwY6DfaThvoD/KkDMLpG1mzTWPxSmvGGGNMG1HvSmuIOsQrFkqEnqgUjoiTNROhmVppRRoHlF4WymyeKZQLiMk0ncrhmHLJg2OEJvGUN/HSuLouga7jtO5Km60XYcSjLuyVV4riqL15eXE+Uj0QtPj+4q+b5ifoU9IoPNuGiaQIK61Z8BpjjDFthJcWbk8keOt1g2gFLHiNMcYYM65Y8LYnsopnLcjtgAWvMcYYY8YVC14z3hRB8PqlNWOMMaag4AeKf+lokK9tNWqJY0wrYMFrjDHGFBRmEqh1cYcUhCwzETCrQBbyZKEKxcmbqUBxRgMCnSV660GLZmRhRoVqeZEO31pTfCx4jTHGmILCnLfZ6cE0i0AWLawA+Joy560WRABdJz2b4qRz6Wbj1EI2LnPlMn1YPTANWjpvr0AEM9OByJbFsYRy2v6USuHZfNJz03pY8BpjjDEFRZZWRN2RRx4Zl7Fl3lmsmrLMYgEljLlfCceqS3zF4RhLqa5LQNYah3JVFquUEQ+Ix/y3p556aiwfSzTxmaNW6VJY1II0gmPCaJPSkX8l6AvKYsvOu8s11Z28gH6jXlix03COaQPXaBfxlG8az7QWFrzGGGNMh8AKXhs2bIhzu8rVAWvqBRdcEMNZHCLrAiHBjDWXFcbyBJ1cCqrFyYMZC1gFjlXXKJd6Ya1lT31qgRXjlC5rzRbUh7l277777rBu3boo8lN3Ddp///33x3zoD+KT3yWXXBLrhxUbYS1Ub/bEo82KNxoXEtN8LHiNMcaYDkEreCHssMLih4u4Q+jC5ZdfHgVcCsIQ9wXSaMtSS5w85A5B2mZCfRCniFZZmGWFZsEI6qE9fSI3hrPPPjvu6TdZqYH+Ij/FQySTL3H8Il9rYsFrjDHGdCiIPJD4Q6ylwg4Qi7oOlXxVq8XRea2W30qk+abljQSuD1/96lfjcr5YeFPIJ60f7c32C+EKS+np6Yl7li/G0ozPNHvTeljwGmOMMR0K4k6P6/F/xbc1O6sBK4MhgonDlic0s3EkbMmf7aqrrorhWTGdB8KS9NkX17T8L3WUlVZQxtq1ayvmL1H70EMPhU996lPl0CEoj/pRHqKYtmBxpl8oh34hb8RyFuJQNnFw68AX2C4NrcmUNWvWXFk+bll27doV9u7d682bN29j2gYHB8OUKVPKI4sx7Ql/xyw+USv47SLKuru7w4knnhj3cOihh0Zhh8BD9GHd5fhP/uRP4nXFJw5iE8G4atWqcPLJJ78sz2wcXAAUR+4SnJM/8Yi/b9++8Nu//duht7c3Xu/r64tpV65cGeNs3rw5nqu+5EV4V1dXzGfFihXD6akD8cmD9EJlUAeuPfjgg+GNb3xjzIs0tJvjU045JTzyyCPhne9857Abg9KoXyR4s/Um3s6dO6NbR9p/RYI+b3faYqW1bdu2lY+MMWb0TJ06NUyfPr18Zkx74pXWzHjjldaMMcYYY4xpcSx4jTHGGGNMobHgNcYYY4wxhcaC1xhjjDHGFBq/tFZAmJYlu6a43khl3yx4k5XpbCiHqVqMaTX80popAn5pzYw3fmnNtCSI3euuu+6AjTXGWeO7mfMDIngpKyu2GwHzNzIfouZ2NMYYY4ypFQveAsNcgqzvzab1xZlYO12ppl3Aal3LhOXGGGOMMVkK49Kwc/fesGPPYPmsmMydPjVMmjSpfFYZVnzB0nrxxRcPC11gBZg777wzrpXOBNpaDYdlEDkGxDGwDCNxuY4bBJOIM6F2iuKwgo3WFceSrHJlaca9QfXQKjlM9n399dfHMEjLIx/EusrT+uRAXkxYThuypO3Bko3FmXKIm7pyUC9W02GScMqi7pTFMaT5cIPAsdrAKj2suEM70naJtB1HHXVUvN5MNxJTH3ZpMEXALg1mvLFLQwuxe3Bf2LF7sNDbWOW8hBdiDWQ1RVAiDmX5RTAjXBGGiED8cjlP3SEUh2vkp6UXUxB95M9eUAZhlCey5XE9W57EqOqeR9oe6iWf4tWrVw+3jbDzzjsvhvf398e6IWq5GRBpPsRnoy4sPYlY55zriHnqLrietgNRjRsJcY0xxhgzcdiloUNA2GF5BF4qS8G6uX79+nD77bfHeAg5xPG6deuixfeuu+6KAo5wCUfEHJCGeGzVxGglKpUHhANhWGrhhhtuyLXuptAe8mDDykq9WOMcEKtYq8mHjTiUjShNhTlccMEF8bqs3rSZOhKGsAWsxIDIRfBjfb777rsP6LdUFBtjjDFm/LHgLTAINKyUWDjPOuusKOh4DM+WwiN9IWFImCzC7EmDcEQYIu7IC3HHpjhYTutF5ZF/Wh5iETE9GtQeRHLaNkAMI3Sx7mLlvfnmm8tXXg7CGNRf1Et1PPPMM+NeIl9WXAQ2bcK1gX6iDlxrR79pY4wxpihY8BYYxBjClD3CFH9SxF4WuQuAhFkaBrKwbtmyJe6hUpx6UHkSkiIVl/WSrVcKFl7cDBCzuCdglZVoHQuyDnOTgfVXm8IbUYYxxhhjRocFb4HhxTQspXosz8tk1cQg6HrWIinB1tPTMyxsJeZE9jyPrPCTqM2mRZhiIW00iFzKoj9w46BvZKUeC2rH1VdfHTZs2PCybbTi3RhjjDFjx4LXHID8e7FUSoQiPvH/RbTxeB+BiDDmul4s41h+vWJgYCDuNWsBIjrrzyqXA8UBysMNQ36yKYozWhDcCPa0DZQ3VtRva9euHa4je1xKENnGGGOMmTgseM0ByPUBYcijfzbEJ/ASlyzAmo6LGQ4UL2vFlF+u8jruuONe5vbAOS+h5ZWXTvnFNGUwVgFJ+ygLn2byYj8aV4wstJX6Ip7JU37T+O82woJsjDGtxrPbd4UnX9jprUnbrr3Fnmp1vJmyZs2aK8vHLcuuXbvKR5XhD2P33pafUnhMzOyeEibXMA8v8xZ3dXWFk046KaxcubIc+nKwQHKdF7C6u7vLoUPiDevsvn37YjjnV1xxRfhP/+k/lWOEsGrVquE4vb294U//9E+HrbVpuQpTOYhbykUEnnzyyfEaeXG+c+fOA8pLXzjDgkp5CG7yys40AXntUV8QH/FNnn19fWHz5s0xL8rhBTbClC4vn2ydgTyOOeaYWF9Qv9EOoF3kL7FuJp7JkyfHuXiNaWcGBwfjXLwTzUu794bBYv/sTigzuqaEKZNH/s0fD/gdbXcKs/DEtp17wvade8tnxaR3TleYUoPgNcbk44UnTBFolYUnsPAW3dA0kcyfNS10TWmNB/FeeMIYY4wxxpgWx4K3CbD87/TurjBn5owwu7R1d02LYcYYY4wxZvyxS0MDmTZtauib3xMW9MwNUzKPIfbs2Rue3fJCePaFbWHnzpF9kvOwS4MxY8MuDaYI2KWhM7BLQ2Ox4G0AvAiztG9BWDhvbk2W3K3bXwxPbH4uvPhSfQNWrYJ3y4Y7w+DuF8tnpfp1zQw9RwytGiYGd70Ytvz8ztBz5Olhx1M/D9sffyD0nXhB+erL2fXc42H7xh/H48nTZoau+QNhxqIj4/lo2LP9mbD10R+E+cf+YTnEmOZjwWuKgAVvZ2DB21js0jBGcFc44pCB0Du/pyaxC3NmzQyHH7wsDCzuK/0ATymHNo4XSkIWEYuoZNu77Znylf0M7n4pPP/T/10Svi+FqTN7Q/f8g2I4Yvk3d10bj1N2Pv8fMT75kfcTd30yCubRsnv75pjfaHjpqQ3hsX+8vHxmjDHGGFMdC94xMHPG9HBYSbgiekfDwvlzw5Erlof5PdVXPxsNs1e8Olps2Rb8zttiGFbf5376j+Hpe2+OwlXseXFz2LNtc9j53GNh269+EHY9/3iMkwf5LT75v4Z5x75xWLA+++Mvhm2P/vNwvmzP/PgL8ZxwoXC2tHwsvRLPWJ7T+iFuOU/TvLDhrnhMeGrJNsYYY4zJw4J3lPBC2qHL+8PUKWOz0JL+oKWLwpLeBeWQxoAVFiHJxjE886MhYTp90RFR+AqE7vaND4RpsxZGay8QZyQmT5sR97hDkN/UUnosxliIJ5X+dc1bHsuUmCWculDGCxv2W4cJe7GUB2B5po4IWuqFJXnarN4wad+ksPFbfx0F7tRZQ31VSx2NMcYYYzpK8OJrO3/u7NAzd9aYJp/v6poWDupfVMqvcS+QLe6dH/2AGwUiEuHIhnAEjvGZnbPiNbm+s/j64puLkCVOHlhVEa5Yd9M4c488Pea5e/vTUaxiAcY/eO6Rp0Vxu/P5x2J434n/uRx+oE9xHttKYh1RS15YqRf/3n+N4TMHVsU95eNPbIwxxhhTjY4RvIjUo1YsLwnVxeGQ/iXhyBUDYcb0/auL1QoW2UMHlo5JMFdi0cL5YWBJX5hSEuZjBZG49LQ1cUNgClllJ3UN7esFAYq7BPlShlC+WGhBQjQrSBUPa/BIkFcaj7ItcI0xxhhTLx0jeLGeMm2YQLguWzz0+L4eli5aGMVzs2CmhxXLl0Zr9FjYu/3Z6P+qDbrmDYStvxpyF5ALQRYEJUITi2weWFXZKrkTzFo2ZH3FjQH3A16gI+60mQtj3lh7Y/iGu2I8QATjN0yZWzZ8pxxKfZeHFzc+OOze8Ohtfxot11iiQe0yxhhjjKlGxwjeGd0vt+ZOr3Nt6L7588KCJrxglmXWjOlhxcCSMHmUc+5iFcV3d/O9n4ubXi7DnWBXSThu/OZfRxEp6ylCVMezBlZFAfrUPX8Xz8WUJE4WwrkOiFHcDxC2v/7y++M1XB0IX1gKx1f4sa9dEV0nlF/PkWfEMn9x+5Xhru/9IAk/Pcw+5KQ4IwO+vOQj8Yx4JwyhbIwxxhhTjY6Zh3fl8qVxOrAU5sH9xa83ls+q0zVtWjj84P6muDJU4qlnng+/eXr/bAZFX3ji3nvvDeedd17YsMGWW9McPA+vKQKeh7cz8Dy8jaVjLLwbn3omDhJicHAwbHpqc/msOsyvu3L5knEVu7Bo4bzQt2Be+cwYY4wxzYanq9NKv/dMOcrGfPm1zrNvWpeOEbws54s197EnngqPP/F0ePiR/wjbX9pZvlqdxQvnl/7o63N/aBT9ixaG+T2131ndfPPN4bjjjgtHHnlkOO2008Kdd1ZfHOKFF14In/70p8PWrVvLIa3Jz372swPatXHjkGWe/bnnnhvDxVe+8pUD4j788MPlK0PQ1gsvvDBev++++2JYmo/yNsYY0xlMmTIl9C3oCSsHloajDj0oHF3amCef7eiVB4UjVgyEQ5YtCfPmzg5TW8Tqauqjoz61Xbv3hGef3xqeef6FsHtPbcsQc3eHpXUiWb5kUZg1Y+RZFRB6V199dbjiiivC7bffHs4555wo7FLB9/jjj8dNICSvu+668NBDD5VDhgQhcbIiWOGQ5gHZfNM8KCNNC9nzkfjYxz4WzjjjjLB+/fqwbNmyKNIBkTpnzn6/agT8ZZddFi655JLoGnHCCSeEq666qnx1iD/+4z8OPT095bMhsvkYY4wpPrzMvqRvYTjm0IND/6LeMGf2zGjdxaKrjZfIeeenZ86scHD/4nDMYYfE3+UZ3RNjCDOjw7cpI8Af9UQ/yqD8g/sXjThd2ec+97lw9tlnx+3oo48OF198cRR/gNUSayc+sqtXr44CEnSdPdZOxOmpp54a42ElJU/4zne+Mxx+6aWXhtNPPz3GR7giFsmTjWPCENDEOeuss8JFF10U8+Wca4AQR2jXCvVH6CJKb7nllvDxj388hnN8/vnnx2NBGPWEo446arhMQVr6JiUvH2OMMcWlZ87scMQhA2Hxwnl1zavPb/KCeXPCESuWh4OXLQ7d05o3c5NpHIURvKxUxh/eaObWrUTv/Hlh1szWeMGFu9Apk6uv6oYlF4tmygUXXBBFHyCE77rrrnDDDTdEIYuIROgBe9IiZrEME48wRCmCEYsqFlbCuS7uuOOOmM/dd98dryFssTSL973vfTGcvBGrxMcKi1hO86kG+ZEG9wzqlwpYRHDK3Llzh/uAelH/rJDlZiBLNh9jjDHFBMHKtKSHlDTDWFdLnYdoXjFQ0iDzJ9w4ZqpTKAtv/MMr3a2tXN4fupI5d0cDszIs6ZtfPmsPEJRZa2YK17DyIhorgWhGYCoeQpMtFdMS0IBwRUBSNmKTY0SvQGQLjonPbAwIzKw4rwT5slFGrcIUsYu1GcGf1sEYY0znwpPSFQNLQ+/8A93axgIuD4t7F4TDD14WZsxonNHNNJZCujTMmTUjOpovGuUMB1Om8IVY0pAVz8YTxOZXv/rV8tmQ6OMlLMJ4mQ2xuW7dunD99deXY7wcROXll18erbJs+AIjMtnID7QH4iOIBceI0zzOPPPMaKVlq1XsApZlyqd9WIwpsxoSu1iQs64LxhhjOhNmW2BhJzRCM+AJ82HL+xsqpk3jKKTgBe64WBWNtyrr8c2BpaU7telt6IyObyqCE+ssgg//WYQlFk5EKNcQvvLfBYlHwrAAIyhxA8CFgTzwvwXcAggnTH6/gAUViy7WYPxyEZuVfGGpy759+6IAJ12tSKyzUT6bXlrLQhtpN23Bkqz4wF7tMcYY0zmgCZiBgYWdmgnl4C4xsKTPLg4tRmEWnpg9Z27c8ti5a3d45LFNcZaGkWDKEd7CbEWefvKJsHdv9TYgOBGGzIBwzDHHxBfFBEKTcCymuCiwR/AiWHkpDYsollSOCUMkEyZRTJjS8UKb/H4pEzcI4ssai/DEkpt1J0AYUz+sx1kqLTxBfMpIoQxZidOydJyFa7SLOpJO8TgmL1CY+sUUDy88YYpA0RaeQBhilxosZYVRpNEwry5uDLObZNmtxIsv7giPbvxN2LN3sBxSH154orF0hOCFPXv2lv7wnoirq1WCxxGHHtTfsq4MtQjeZsHUXohBBCmiFxGKe0Q9whCxi+hk2rQ8v1qvtGaajQWvKQJFEbzMfcsMCfPnzglTpk6J7Xrm+a3hqWeea6jwXdq3cMKmF92xc1d49PHf1GRwy2LB21gK69KQBd+dw0pidkFPviiePXN6XH643fx2xwtEKu4OiF18abHu1iN2sZ5iSb3mmmtyxS7I+mqMMabYYNVllgRWE40rmZXCmP+W2Q4GlvQORWoAC+fNndC59HGPPOygZWN+kd6MnY6x8KZsfu6F0l3klrBr1+7QXfpj7JvfE10ZWt3fZiwWXlwC8O2VG0IlcE3AVzfP5cCYdscWXlMEimDhZREH3rGpxC9+9Xh4cUdtq6FWArHJzE2t8Nu+a/fu8Mh/bAo767D02sLbWKasWbPmyvJxy7Jr167yUWW6urvjVgszZ3THtyi562OPK0M7OJe/uH1b2LdvZF8gXAMQrfjs7ty5M1pkeSkN6yzC98QTT4zWVF78Wrt2bXjwwQfDypUr47WbbropbNq0KTzyyCPRlxU3BCy5AwMDMV/in3zyyTEuZdx2221h8+bNYdWqVeXSjWldeKEE0WtMOzM4OBhF70Tz0u690e92NPDbO7PKC2QIxO1VXBBHgvl1Dz1o2Zjn2W0UuG/MnTM7vLBte9hb+vxqYUbXlDClzpfum0VXV/uvKtfRz+/bQeTWC64DzESgF8gQpQhdRC5oz8ITCGLcCzTLAi4HeoFL8YiDuAX2+OACMzLwAhwzMmAVRggbY4wxtdDs319maWo1NwLqg+skLhxm/LHDakFBnGKZxYWBhSLkxqBZCRCqzMeLQCYe8eVDy3klP1tBXIQ0opeV27SUrzHGGDMS27a/VD7KZ/uL1a9XY37PnLCgtLUi3V1dYQXTpRbQ4NbqWPAWDIQosycgarHi4rfLjApZmHUBSzCiVVbdkUAcC+b8RRRjAaYMyjLGGGNq4YXt2yv66PLYf/tLo/PfxYq6tG9B+aw1wZVjef/iQj5lbmUseAsGllp8c7HgYnmV9VZgkQXNW8uqatnliDnHzQEQw4hizll1TSBwmecXCzJz/Sq+McYYMxKDg/vi/PjPPP/C8BRk+CY//dzz4Vcbn4zno6F/UW+c7aHVmTdnVpwuzYwfFrwFA4GKyGW1MRaH4IU1LQaB2wGrpGHxRRAjWomjdIDvLum1IhlTkeG3SzoEsuKxx0rM0sVaoc0YY4yplb17B8PjTzwd/u2Xvw4bHn0s/PQXvwqbnnxm1HPwLpg3N87+0C70zp8beud5GeLxoiOnJWtXJnLhCWOKgKclM0WgaCutNQKsukxB1m4vhGHVfuSx3+TOSOFpyRqLLbzGGGOMqRt8UWdO745ic6L9UVmsoh1nP2CqxIOXLWkLN4x2x4LXGGOMMXXTv2hhOPyQgXDUyoPC4QcvK4nOvjjP/XjTM3d2mDO7fVwZskwrCfWD/RJb07HgNcYYY8yomTx5UlzAiWV8Dz94IIrfeXPGZ/VSLKMDJeHd7lJx1szpYUlva88u0e5Y8BpjjDGmYeDqcPCyxeGwg/qjy0OzQFBjZS7K6ol9C3rC3Da2VLc6FrymKTBzQzodWqfi6dqMMZ0KwheXh2WLe5uy0ML8ntlh3tz2f5lKIOCXtakvcjswZc2aNVeWj1uWXbt2lY+qs3fv3lLcncXddtb2Vu65554bF6BYuXJlOWT8ef/73x++//3vhze84Q3lkImFpZAffPDBcPLJJ5dDXk6j+42FOpijmPmKyZMlmMmfrdnccccd4ZlnnhmeRs4MwQsiRbEGmc6FN/uZqWGimTFzVpgyZeTvE8J3wbw54cWXdoXdDao3C0ysWN5fOL/XKaUxamZ3d3juha1hRteU0nlrtK+rq6t81L4UxsKLINy29YVCb7XOTYhlNV0VLQXLa3ahCaFFKaCeeHlcccUVcTW2lFryq4U0n2r1BOVNnGyfZMvN9lu1vCvVOQ1H2K5fvz6KXmAu43vvvTceZ6m1rEpxsuFr166NAtsYY1oBfG1XLF8SFi2cP2aRqpkNiro87+xZM0LffM/P22js0tBBsALbqaeeGhebwJqJSELksXjEpZdeGoUZ58QjDhvhxEOopfFWr14dF54gDksLZ90XiMd1IB3lEZdjliMGFrQgjAUxyIMV3VQf5Uc+bJDmo+WM1Z7s0sbUmbjUlbipkEUIkkbXsnWHWvtK4LqQtkVtJIyFPsgDEL1ZIXrzzTfHsthUH5VFH6qeaX/TV0pLWJqWulMmdVDfGWPMRIP1kmV/ly9dFF90Gy2LS6K5mb7BrcCSUj91TZ1WPjONwIK3Q0CwXnfddWHdunXh/vvvjwIQYSQGBgbCXXfdFR566KEolDgmHkIuFWjnnHNOXGKY8OXLl8d45IV4rQYrvm3YsCEKwo997GNRQFI+q8CRByu1pQKyEqwEpzKpgyyoCLwUHumTH3FZ/lh5kw7Reckll8T6nHDCCS8ThbX2VeougOCmjWoLaVKoA1x99dWxD1PoC8qiLaxyl/al+pj6YxWhPsThMyGM/FhCmrS0hXpQPsesjJe1shtjzEQzf+7sOJvDaHxVmQli0cJ55bPighUbtw3TOCx4OwQEIQKNjUftCM1UJCKQuIblEAGGCGR5YURV+uIV8RB2cNRRRw3nlxV4WSgPLrjgghiXDeGHuMb6SRnkNxKqJ3VgDxxny0/bq/igtiAGIU8s19pXKYqD5RvBrPbWAnlxE0Ba+j9tC/VTWfQP9VF/c3MCiHH6kPLTz8oYY1qV6d1dUfRO767dUssLarwAZ8xosODtELAKImQFQpawLIQhsLAMsmF5xB93rKhs+aMi2hC8WC/PP//8KBIRfVmyQrZWsu0VlAvKlzgKE7S/lr5KQeDSlssvvzzmLReGkUCgYnGmD7ACI6ZrpadnyMdL/tJYem3RNca0C1gwDz1oaZg7e2Y5JB+ebiF2ly9ZVLiX1Mz4YcFbUOS/ycbjb8Qlog2rLRZBrmcfrQNhiFLi4BZw1llnjeiuUAvkx4a4QxxSF2ZOQOQiEBGYCE3C2RCMXM9aX2vlzDPPjGJSfaB8sPQiKtUPuC4gNlNUv5H6KgX/WupM3+WJaCDPO++8c9j/NgXBjz9uPe2VpZk6kp7+ki8zZZEX5QF5I9yNMaaVmDplaJWx3govaSFwF/cuCAeN0e/XmEJNS2aGYDaHvr6+KLrY8ANF6CHkHnnkkbB58+ZoFdRj9+7u7ugbS1yOmUpML5B98IMfjPEYdBBRxBNKQ3m//du/PfzoXWg6LkQl+ZDfqlWr4rHKfPrpp2NZlIHvqcpHNHKd40MPPXR4qjCVCeRPmdQNv1q5LQDhnNNWysQ1QPWhLPJAECNkJXjTdtTSVymnnHJKDENkUs6HP/zhGBcUn7aQJ/mrr/icqDt1IZ3qyXWVpXxOOumk0Ns79DgvbYv6kLb8yZ/8SbxOmyW86Yf3vOc94Z3vfOfL6t1peFoyUwTabVqykWAMx8o7vasrDJbGYWRtV+l7yjy7B/UvCj2zZ3WkZfelF1+M0622AkWYlmxSSYTUNtfVBLJt27bykWlHmG2g3sf1pnEgprFW43LR6SB2p0+fXj4zpj1B7O7YUdu87M1kQW9fSQg1frYEjA+dKHCzPLv56Tjlaiswe3b7L/BhlwbTdHhBrNMtixMJ1mLNEmGMMa2Oxa5pBrbwGmM6Blt4TREouoXXDGELb2OxhdcYY4wxxhQaC17TUTDjBLMuALMqZFc9y8IsFSPFyaOWvEcLL/8xMwMvpbHPm86tGaR9VwnarJkhjDHGmFbBgtc0HV5aG2m6LabVIl6zQbRJiDKrAbMgVIOFMkaKk0cteY8Wpj5j5gumc2MGBs1OwfRrtc7/OxrSvqsEgpjp7IwxxphWwtOSFRAsgAiiG2+8MQpNTW1FONZA5mrFOsjUVYBQ4qUyrn3jG9+I4Zyn8TmWgOOt/yuvvDLcdttt8VyCKy+c9A8++GBMz8tTTMHFnLDXXnttrBtxVPajjz46XA51p45MvUW+xGcKLgQX5wgrpuNS2VCpXgg10t9zzz1RJPL3hCAlD6b5ohyug+KpzxRH9b7pppti/pxrajHN55u2p5a8VV/6fOfOnTHNySefHOOKvDbRR8RlOjWmOaMM0q9duzZs2rQp5q3PNov6Mvs3wA0HyxTX2ncp6hc+Z6Zxo/18VtRTf4ccM5WaplibKDwtmSkCRZuWzOTjackaiy28BQQrH8IGQcQeQabVvxAjzHeL4CEcEE8ITkQK8RHAwEIGQHzEHPEQLuSD2CN/0nEtDUcQEY5Y0lRkiDxEIoIVYUZazkmD8JJ4lKgmT+oC1J2ygXDyph2p2CUO4eRDfVU+9WJKLsKJT3qh68qfa/QBexaSSONgtUQQMuMEccgfiCfxqT6GvLzpC8IRiIRTL4lDhCHXUtI+Tfs6hXPSSYCzcVwJfbb0EZ+FPtPzzjsv9o8+O/IlvFLfCfUL12mLPjOg7lijqTvlqGxjjDFmvLHgLRgIDoSKFktguVlEGhY8wln6FuGFwEGECM6Jd/HFF8d4gIBB5Dz00EMxnOsIHKaMYREKykIMIZwUTv7EYxosRBB1AK0KRpnsSctci5TFpnikJe9qkC/1YS+oK2096qijYn0BUUm9uEa9EF4qJw+uUz59kfVD1TK+iEvqf/3118dz2qN8tRxzHghM4lFn2qvPSf1KmVkq9XUeXGMjLotXVCL9TKmrPlPS8nkgUFUO20h9R158trQj/Uz093bJJZfEdFzLE8zGGGPMeGDBW1AkGhEviBCsqPWCIJJ1F0GWLluLFZENH1c94k6FKmVSdhZEUJqeMtJ0o4V8Tz311FhXxClCTaT5VysrTZMFUYeIJw4WUFmmQXlyjXh5VCq3Wpkir69HS/qZrl69eti1AfLKSevNDUQW0ub9baldSs/fQl56Y4wxZjyw4C0YEpoIGax1uCXwWBorG+IDNwbC165dW1GcCblCXHPNNTEuohI/TInW448/Plo8yU/hlIs18rTTTjvAgkwYwgiLIn6mWGL7+/uHrYgSSFgGgfyxsnIuoV0N4mENRcyRN3WBtF7EqTaDQNo35JFCWq5j6bzssstinmz0N/FpH9dpdy2QjjbiEkEfkkcW6k7/q6+pA/WrBn3MMsNA3KwYRazrM1U/4UZCPD6P9DMlPO075ZtCHNpOGuLIisvfIPXW3yH7kf7ejDHGmGZhwVtAeNyO+MCCh5DhkTSCEusewoRwBAniEDjWI3vicQ6IZAQpllNA7CFayA9xRz6IpzPPPHM4nPhYP0mLuAXKQfBQNnkgtIiDcCQtwogyeRRPGMKKNDxi5zy1FqfiOIXyEGtMI4aooz60iT15UV/8ZImn9Gm7gXAs2YTTV6A4qgP547OKywjtIJ7ag5iWq4PSpf0JHKsNWIwRlPSZ+iol29cSp2meygvoW/pM/sf0XdaNgHL0mZJOnyl7+i37maZ9Rx+oLEF+9BlpiYNlWHWifenfofrUGGOMGW+80prpeBBliLYNGzaUQ5oPolICEcGMSL3//vvD7bffXo4xdo477riwbt26AwR3p+OV1kwR8EprnYFXWmsstvCajgdr5HiLQllB//iP/zjOP4zYxXLcKBDU+OJa7BpjjDG28BpjOghbeE0RsIW3M7CFt7HYwmuMMcYYYwqNBW8HwYIHvPg0kfDyUnbmgFaFF76qzepQDV4My+vrtP21xJlI8mZ5SOHaSLNGGGOMMa2AXRo6BHw6mUmAhQCqLUzQbLTaVvrGPnXjLX9mBGgln1NmlmDGiNH41jKbQ15f035ELjMY1BKnXpgijHoziwSzX9QCszDQ79k5fvl7IbzS7Ap62e+uu+5qG19huzSYItAqLg3Tpk0LkybZbtYsdu/eFWfeaQWK4NIwZc2aNVeWj1sW1u839aE5UfVyVHd3d9xWrVoVLXNMEcY0U8BKW/RxX19fvPb1r389Ci7ik5Z8OMeahwAk3gMPPHBA/pCmXblyZQwDhTNPLumA6cEE15ixAKgf5ZIHdUzzUj0feeSRWA/Cs+1M61qtfmobYpswjtM+AcrSdGRYY1mUIa99qgN5EQfU1+SrcrlOvTlHXPb29g5P9VUpDm1GoBGHcimHsrN9ofbcdtttcU7fhQsXhkMPPTSGA2lpH/UjjPTPPPNMLO/GG28Mjz76aLyWClfmUSZPPivVD0FNmOpDHOr5ve9974D2Q16/qN78HehvTvH4+6BPmsnkyZOj6DWmnRkcHIyid6KhHnv37vXWpK2V6OrqKh+1L7bwFhAsdggRprtCSGA5ZZ5VZgOQtZI5WjUNF5Y85lxFuHCMCOOuEiHFtFZMmUU+WAwRPogdjhE8QBxEDRZL0mbDZSkErlFWajXEokl9EVbUFbFKGOeUq/jkQ3qVTVnkT50AS6Oso8A1Frlgqi/qTP2oB+mZFQELKscsFkFfESe1qqaWVvqOegCij/6krghh+pL5aKkrdWbuXPU18+ZS77TPqAN5Ui5L7tYSh8+GsrgxoJ1pX9B+xSdc9aDPuA6IytQaSzz2zLf7oQ99KJZNGZQlFId8qAfH5IebB2XxN6J5i+k/wmk7fcPfIJZmfYb0D/2V1ptZJPis03ikZWsWtvCaItAqFl7TOfilNdNyIPIQRQgPiQ8ERS2QFjGCOGElLhZRkGBC1CBgEUTEQfCwcUw6BA7CjTAEJmEINDZQfOWXghAC6opwIi+JL+qAGKYcQORSD+JKkCM4ua44qh/XEGXUAcsiwvCGG26IG+Xg0yxwASBNNRBlxKFe1Anoa84RhVp0IgWhSblqP/2YpZY4eSDA1X7EIu2WYOWzz+vrLLhT0KfkpbR50D7qpnwR/YJr9CnpZalnT59yjY1z3ZjoM6Rs/a2Slq3Wv1VjjDGmHix4C4ZEH6JRQkiWyZFAiCA+ScuiBalISUVYnpCiXMXBWsixBHSathYxR5k8fqf+WjVN9UjL1jHlpdAOwTF1UD2UhjzVV1BLvfLKIw+WAAbKQrylZMvNK4c4XK8WJw/Fy7a/0dD3+pvg8wA+W6F6cBOhzxwUrr3SqJ36TBG5fNbcRNTadmOMMaYeLHgLhgSDLJYIMKylKRIcCBM2Wes4RrRgfePRN6IzteRVg3RpPmz4bRIun1Q2jkeCNsiainUQi3M9QgiRr/KoB0KU9KoX0LZGiCvywEIL5HnRRRfFY0Ffp+VStyzkobpCNo76LC9trUgUU0ZaFujvoRI//OEPYx3uvvvuaMnNorxwaaAtbOSpftE+K8yJw6a/VT7rZrozGGOM6VwseAsGokK+ktqyQgnXA0QJPq0ItFSIYMEjDeESL7WAPybCB19P+fIiVBHbiBrC5EObheuEX3jhhbGuiHTcEKgHaRBSxKkV8iLtqaeeGs8Rz9Sjv78/hq9evTqKPrlSjAXqioWSfPH5Ta3LoPZzXX6wWahfGidtq1xSCE9FaiUk7um3NL7CKSP7OfD3gHVV1tssXMc1hM+HLStcaTd9Sh7qU/Y8IaA8zcCR/Qyzf6vUq5YbImOMMaZe/NJaQUHssCFsJG44R2QgPBB8WGRTgZaGc6xrhIGu82g6zTMVTwjWNK0gPFtWSlofrqn+9dZDL5phLWSv/ITqh/VZ4UqbJS2DOGnfZctWHmmY4kPa/rw8IS8OpHVWeNoXoPJ1zJZtO1T6HFRGei0tI81TKJxySc9edQClScOz9Ya8eM3CL62ZIuCX1sx4U4SX1ix4TaFIZ1YwJosFrykCFrxmvLHgHScseE2tyI84tUQaIyx4TRGw4DXjjQXvOGHBa4xpBBa8xhjTmfilNWOMMcYYU2gseI0xxhhjTKFpC5eGVltT2hjTnkyaNClMnuz7fGOM6TTaQvAaY4wxxhgzWmzqMMYYY4wxhcaC1xhjjDHGFBoLXmOMMcYYU2gseI0xxhhjTKGx4DXGGGOMMYXGgtcYY4wxxhQaC15jjDHGGFNoLHiNMcYYY0yhseA1xhhjjDGFxoLXGGOMMcYUGgteY4wxxhhTaCx4jTHGGGNMoZm0cePGfeXjluX/+8lPl4+MMWZ8Oe+P3haWLF5cPjPGGNOOtIXgPeM/nV0+MsaY8eXaj380vOq3ji2fGWOMaUfs0mCMMcYYYwqNBa8xxhhjjCk0FrzGGGOMMabQWPAaY4wxxphCY8FrjDHGGGMKjQWvmTDmzJkTTjjud8Ky/qXlkBCOOvLwGF4JrlW7Tn4pKgPIuxp59QHSEZZXLmEj1dkYY4wxE8uUNWvWXFk+blnW/q8vlI9Mkbj2mr8Oj/7q1+Htbz0nPLzh5yWx+btRWO7atTO86rdeGfp6F0YBunHTE+Hk/+PVYeWKQ6K4fNVvvaJ0rTde37jpNzFs8zPPhtNPfW34vVK87u6umC95feD/uij8rJT3GaeeEq/ft/7H4Q2vPzNs3botzC2J1DNKYRyzEZd8Vqw4OJapeO9913kxr83PPBProfiEvf2tZ8d6Ue7OXbvCplJ9TLF43RmnhSWLF5XPjDHGtCO28JoJY+vWrSVhuSm8UNqfXhKkc+bMjiLy6COPCEeWROyF/+W9gUmiuXbuH739AAvtaSWhyvnqN72htL0xhpEfonZfmBTPyeu+9f8S7l//o+Gbpov+y3tCfymc/cc+8pelco4o5f2OeO32r/3vcHy08PaHy/7b+2O8S//bn8VrQDjxCQfKRnA/vOEX8TxrXTbGGGNMa2DBayYM3AAQt0eVthe2boviUWAp3VQSw7KY3nn3d0ti9v8Mc0uiGMss4varX/tGOO+P3lkSs7fFOAjQW/7XrSUh+xfx/GclIYoAPrsUfmlJwAKWZLb7SiKY8hDD5A2r3/SH8Rwh/fCGDVHIpk8XEOYI9PNK4lsgqofqNLscYowxxphWwyutmQkFi6ospAIxK59YHWP9HTrHlWBJSXg+EUUmQvZ97///xGuAWOUa6QBrLPEog3wIV5kcZ+On17J1y6Yl7/P+6B3xGHGNWFY+pjh4pTVjjGl/LHhN25KK4okE4Tvk12uxW0QseI0xpv2xS4NpWxCYrSAycbuw2DXGGGNaFwteY4wxxhhTaCx4jTHGGGNMobEPrzHGVME+vKbVGBwcDDt37iyfGdN8ZsyYUT5qXyx4jTGmCha8ptXYs2dP2LFjR/nMmOYze3b7T71plwZjjDHGGFNoLHiNMcYYY0yhseA1xhhjjDGFxoLXGGOMMcYUGgteY4wxxhhTaCx4jTHGGGNMobHgNcYYY4wxhcaC1xhjjCkoW7duDffee+8B289+9rPy1eahch9++OFyiDETiwWvMcYYU1DuuOOOcN555x2wrV69Opx22mnhK1/5SjlW43nooYdiWVdddVU5pHF85zvfCZ/+9Kctpk1dWPAaY4wxBefoo48OF198cdzOPvvssHHjxnDZZZeF++67rxyjfUDwXnfddVFUG1MrU9asWXNl+bhlWfu/vlA+MsaY8eV1Z5wWlixeVD4zZuIZHByMywvXAu4Ld955Zzj55JPDFVdcEU488cRwxhlnxGuI3blz58ZriMivf/3rYWBgIB5/7nOfi3G7u7uje8Ktt94abrvttpgfcUiXojjf+MY3wtNPPx2vf/WrXw3Lli0L55xzTnjhhRfCjTfeGDZt2hTFt7j55pvDPffcE8sS1crDKk39Nm/eHCZNmhQeeeSRA9KKtD3ksXbt2vDAAw/k1h0r+Be+8IVYD+qe1i/NBxeNm266KbaFONk2p+kgbcfjjz8e+vr6XlZ2u9DV1VU+al8mle7y9pWPW5Yz/tPZ5SNjjBlfrv34R8OrfuvY8pkxEw9id8eOHeWz6iAQseRi1f34xz9eDt0fjvi9/vrrw6WXXhoF6gknnDBs9b3rrruiuDv33HOjeEu5/PLLw/nnnx+PsRYTh704/fTTo9Amv1tuuSVew41C54Iwrm3YsCGe5+UFKo9rWau00qaoPbSbvUCAUz57wL0DQTxnzpx4TjsRrrfffns8z+sXoC6I4bSeaZ+QZ7bfELv0NXm1G7Nnzy4ftS92aTDGGGM6DIk3CT+BgEMQIvi4dtFFF0XRhnUYYYkIRhx+7GMfGxZ7+NNyjCV3/fr1Mc5o/Wsldt/3vvcN50V5uDBQD+qGiIWrr746V+ym0M5169bF9hx11FExb/kuc23fvn1RnN99992xPMQoYjUrqimbuiBYqQ8WcG4WCEPoAnUU6jfqq36jLMLNxNAWFt5vf+fu8pExxowvv/XKY8KSxYvLZ8ZMPKOx8CJeZVlE9CHoEG6IQa7JkokVWIKSR/i8eJZaPIEX0XARkEXzyCOPjOGIOglo3ATwF5ZFlzJHsvAiNLG4kgd5CepKHNKmdUXwIrLzUJzU6lrJ2g2I0y1btsTrlKe8lc8NN9wQhTGcddZZUdDTd4hoUB/QDvUb9SUfgSAmrzRdu1AEC29bCF5jjDHGDDEawZsFMYYYlN+phB1ilGsg0Sq3B5EKR/I4/vjj4+P6+++/vxxjSFSnArcWwZsKxTROlnoEbxonK3gRufgQE486pGQFb9ovcqtIBX4qeCv1uahW71bFLg3GGGOMaXn0+J2NR/cIuOxLVpXAjzdF54hcvYSVjcNLWnkgMiuhvKrFaSRYqrG6Ym1F0NM3sm43AizC9HN2O/PMM8sxzHhiwWuMMcYUHNwXsEaycVwLzH5AXB7fpxZQ3BlAsyPI8oklVKTHKeSjvLIvfaluuDak4ViBsaA2et5dlXHJJZfEGwLKzwr30UBeQH25qaB/2JhGDSu2mRgseI0xxhjzMrC48vKYZmrg8b5eKkPIyadVPrJc56Us4iBaUxCTiD7ywgcWX11efEvFt8oD8lBelIeIlN8reQHW2bG8BCahTr158Y6yGiGqaQeuGdSbttJO8saVgRuBWm84TGOx4DXGGGMKCuILgSh3gUooXhbELP6uiDT5uiJKeTQvEKPEQZDKgsmsDtlyiYPIJIz8cCNAOKflpuVhAUY4Ux5hgjhyPcgKa6H29PT0lENe3hfKB/cLZl2gLoSl6ZQmhfORwmg//s20g7ypJ3mn/WbGF7+0ZowxxrQR9by0Zkwj8EtrxhhjjDHGtDgWvMYYY4wxptBY8BpjjDHGmEJjH15jjDGmjajHh3fn84+FwV0vls+G6J6/PEyeNrN8NgTxppTDtj76g9Bz5Okvi5Py0lP7l/TNy69eyK8R+ZjmYB9eY4wxxrQsz/7oi+Gpe/572Hzv54a3wV0vla/u56l7/i6KTq7teOrnMWznc4+F39x1bdiz/Zl4Ljh/4q5PxrzI+9dffn947qf/WL5aP8pv13P5i1WMBHXc9fzo0prOwYLXGGOMKTAzB14Vlv/hx4a3qbMWxnAELtbcVNBO7poRZq94dTx+ceMDUfxuf/yBMLj7QCsxLD1tTTj4zX8T5h5xWnj+p/87xtn++I+jcGWvfFVOahUGzrdsuPOA8jneXipXpPmQP/mkabhOHbc++v8ekI8xWSx4jTHGmAIzuPulKAa1AcIRq+qLGx8MT37/hmGr7+7tm4etwLL07nh6aF+JmQOr4p40L/z8rpgfApiysPxiBSYv8t3y8ztjXMKjVff5xw6wDiOCsUqLZ3/8D8NCeeM3/7qU/50xr43f+uto1d359C/itT3bnx1umzF5WPAaY4wxBebFxx8Ij/3j5XHj8T9se/SfoyV38e/917D01DW5Ftx5x74x7hf+9ttyfWux/GJtffbHX4xWY1mOu+YvD8te/xeha95AFL6LT/6voe/EC2J+sgRTPueEzz/2D2O6amDJRbgv/r0LY37zXvHGksB+MSwo1Q16jjg9TF90RDw2Jg8LXmOMMabAIGxXvON/xA2XBsAaKoE6uWvm8HE9YPnFQovQxL1BTJ42I+4RqKC82SNSsQSn5ddSNtZc8lVcXqqzwDX1YMFrjDHGdBhd8weGXRYQn6NxB8Dyi4V24W+/PVe0IlCxDOM+Afj2Ek/b7vJLalnf3jwXjBmLjjzg/Ol7b45WYpGdicKYLBa8xhhjTIFBGD56258Ob4jG+a94UxSgzLCAz22eYO2etzyG4zsroVkPWI7nvXLIjWHjtz4aXR/kvsAef17cLFLhOmvZqiiUKTOtF9ZcXo4jnDSIdVl4cZ14+t7PRdcNYyrheXiNMcaYNqKeeXjxl9ULaUIiUhZTrL3EYYYGLLKEpXG4NnX2gnhNpHFS5AucjatysuHkTTjHKp889mx7NpaZ1gs0dVm2PgjgbP6mcRRhHt7CCd4t23aELS/WNhC0K/0L54apU2ycN8aYTqQewWtMI7DgbUGe2/pSeHZrsX15Dl4834LXGGM6FAteM954pTXTFrzwwgvhscceG95SdK3ZUAZl1Uu1dKPNM+Xf/u3fwj/8wz+Uz1oD2vSZz3wmfPKTnxxz+5oBdRqPvxljjLnwwgvDzTffXD4zZvRY8HYAf/VXfxVOOumkA7Zrrx2ai/Gb3/xmPG8273//+2M96uWtb31rxXTk+a53vat8NjoQleqLVoH2sv3gB0NvNrca+pt5/PHRL+X5z//8z7HvjTGmGlu3bo2bMWPFgrdDWL58ebj33nvDt7/97fCKV7yiqvWQ8ErXKllV67H6VYpXq8W2WjnV6p537e///u9jn2RJy6iUZ6VwqFbHkdrJ9de//vXhS1/6Upg7d245dPTthpHqI8ijUtxqeVQjL08Eb6vdaBhTVL7yla+ESy+9NHzsYx+LvwNFgbaoXRs3biyHhnj86U9/Otx3333lkMpxBaIaS/JXv/rVcsj+fO68c2h1ONPeWPB2EAMDA1Hsvuc974nn3/rWt+JeIEze8pa3hKOPPjpuWPEkVNj//u//fgzj2pVXXhnD4aabbgonnnhivMaGm0Ae5KE4aTzCKZcw8n73u9+dK96Ir3qxpXGUh+qO9VfXly1bFs+pY9ZaTDjt0jF5qC5suDuQjjwl0Kr1U7aO5E1cyLYzraPgOmIQKyr1hi9+8YvDeRKmehCPc/qL69nPk/hpW9hUzzQcKzrQN2nd9fmovQp/6KGHYjhQN+oga6/OBXXN5kkctYG4tMMY0xyuuuqqKPK4eeZ7et5554XPfe5z5av5nHvuuVEctjKIUdoCjFGrV6+OohVxf9ZZZ8U2StwTdtFFF8XfwDSuIC/SXHfddTEufOc73xkOu+OOO2KYaW8seDuQn/70p3HPlz+FR+g9PT3hhz/8Ydy2bNkSLaCAKGKgYAD527/92yhyEViIFcTvRz7ykThoYJlEgOXBYPs3f/M30aJK3vipAum5xqDCNeqhaynkS/2ow4c//OFhQQZYrMlDdadeaR6cf/aznw0f+MAHyiH5EG/NmjWxjYhDhCf1eu973ztsFSe8Uj/VUsef/exnMR15Z9tJHbkpoR/Jg7IQxpyTjrqRTyoSKR9r8Ote97pyyH7SPgfyEuRNHak7IpS6kA91429DnyPhlMc14tbqakGe1JW+pHzyRFTTFvoTaCPtNcY0Hr5fa9euDevWrQuXX355uOGGG+IeMQeM2QhbCVwJRsYarKMIZSAfBCPxJAgBiyjhpMUSqvjky7Hy5RwIIx5pqAN75Ucc4j/88MPxfCSoEyL+4x//eGzTxRdfHMNpwy233BJvtMWkSZPCJZdcEuMQn3E8tf5SNuFnnHFGOWQoDf11wgknlENMu2PB2yEgbmRlQ2AiOF796leXrw6BEMH6i5BF2DAoIKZIK3GEaEH8MtiQnrgMOlxH3Cg+QisLaUmDwGEjHiD83va2t4VjjjlmWOwhllIkNKkf+SDuUqFEHoRjkWWjToQJ8qdsXDuqwXXiyepJGeRL3YB6EJbXTyPVkTYRjoCkjpSVCmKg3tqIq+vkSRiCnX0qeBHB1JnwLJSvPqdf03SEq47UjXM26kV5tIXyEbi6Rlz6shboH+LTl+wR84hftQ9oY169jTFjB1HHU5T0qcv5558fBSFg/eX79773vS+KXAQsT7SU5uyzz45iEEsqApJ4iFbyJfzqq6+O8UiDRZU8AOHKb4DylbWYY1wGEJbk19/fP+xCwG8KeR511FHxfCQQxoy5pNu0aVNs15w5c+I+FbtAO2QNRmATLy0HUZsVtqeffrrFbsGw4O0QGNQQRmxY6lKXBMFjZh5dM1AhRLLikMFFSKgg9FJIQxmNFjEqB+upqFYG4q5WYVYvWLfTfkLMwWjqyFYN9XmaJ6SfRTXS8qvVhfzTPFVereXUAuXTX8aY1uCaa66Jwg/RiGUUwYmA5bvKHuGIQOR43759MR7HhLERD+sqglLWUfJgw6KKYMSqikCWCwFx2cjnzDPPjMKVawjfWgUm+csyfNlllw0fjwSCG8F+xRVXxPJNZ2HB2yEgYLC0sWGpywPfTK4hhrH8ScAhYhnYvvCFL8RzLH8MFlgpEWyIIvLF+oig4byauMpCmXpMTlqskNk65tUhtVZKdFIHNu7gsyKxUfDIn/LoJ0S1RCF1ZEMQq35ZiyqojqSjntVQGrk+YIklXbZ/KoGVm7qQhrTqpyyEY80lLhCXtlDOscceO3xNn4/Q5/xP//RP8RpWXUFa0slKnfpLKx1pjDHNgXEacSixCbgSyPUAH1XEKOP2SJZV4rBdcMEF4ZxzzoljVzp+Zb/LulbttwCBi5CmDmzkXQu06/rrr4/Hd911VxTdI4HYxfKM2EVwm87DgtcMg7sDYgbrpXxRBX6gCBfu+ImHmEHkIoxxj5C7BKKmHrELuEpgLSVvHo0BgjAL8agf8SgbQSaon/Jgw71CbgiNhnbSF/STBJyQiwNxsJindUzbyYZ4ryRABemxmCOi1b+IbPq9FsifOtKv3MDQT3ngwkBcyqBuCGU9BdDfAteUj3jNa14T60hc0qVQT5WvPPW5qt2EpwLaGNM4sLoiDhG2CF1cFhC7jNGyxCJeEZ6p7yxilWuE8Z3nmLDjjz8+5oOAZnwlHJ9cLKxKT3lsuDgw3rHnPBXHKbggfOhDH4pjQa3uDEA9aAdWZ22psE8hLmKX/sCNgrhqv3yXTfHxSmtNZEZ3d5g1a8bQqmilXt6xc1fYuv3FsHdwsBxjdNS70hoCjC3vcXL2GlY8BqlUiEnA6hrn6XVAAJIP4qeWcvLOyYO8yUNlqrxsHVR+mgdIPHG9Uh4paT3SY0jTZa9V6ifigOIiigE3EpFXxxTlkV6r1PfV2oZA5cYEkam6Kl62PaJa3bhGGJ9PNi3XVK+8a5DNM+3DvPobY/KpZ6U1iVIsqIDA1QtempUAQcp3FsGJAJXfLaIWP13cDRDLCENEI765CFjCSY9Y5bvMdfyDJSTZkzcvhLHHZ5g8Uwsr9UKMEifP8so1BDllCuWfhZfMJKzTsmgnIjdFQp+FLUhH/YjH+JVajMmHvqFfOhkvLdyCTLTg5c3OBT1zwsL5PSXB21UO3Q+Pb7aXBqrnnt8annthWzyvFy8t3LrItxfrJoIO1wBe1MIiPd5I8Fay6hpj2pNWWFoYYYhARAhyw4pwlLitFQQyQpp8cE0gfZY8wWvGHy8tbA5g9swZ4cgVy8PAkr5csQsI4tkzZoTlSxeFo1ceFBbOs2WrSGDJxaKK2MUNgPOJELuAm0Ktrg/GGFMPiFwMNrhLHHfccTGsXlGKdRgrsV8iM+OBLbwNYtHC+WFp34LyWX3g6vDYb54KL+7YWQ6pji28xhjTubSChXe8kH9tJR9gMz7YwmsiS/sWjlrswvTurnD4IQNhce/8cogxxhhjELoWu6YRWPCOkb4FPWHRwnnls7GxpHdB6F+8sHxmGgmzCOBmYIwxxpjOoyMF79zZM8PyJX1h2ZLeMHN6vq9tLSB2+xf1ls8aQ9/8eeHgZYvD1ClTyiFmrPByBVNiMX+uMcYYYzqPjhO8vfN7woqBpWHBvLmhd15POOzggfiyWb3MnDE9ujI0g3lzZpfqtSxMmzq1HGLGAi9XsEiGXuCSpRchrEURQFOrpShONhzIR3llrccjpUvLNcaY8eaOO+6I03tVg+u8WOZ5ak0R6DjB27fgQPcDZk3oq9MloaskRLHCkrZZdHdNC4ce1B+mWvSOGQQmU3SxCpiOWcCBuSNZFEGLOmiBBolRphTjnKnGiKuFGODP/uzPYho2HWu+WfIjnRZc4BxUNuHkyXGeIDbGmEaCYGW6RME58+tqEQmhuXQFq2+ydC97SK/n5ZlNb0wr0XGCd9rUl7sKTJ1cn/tA/+LeKHqbDaJ35cDSpgrrTgWhyeTqzJeLkGWuWrk8aBlf4rDKGfFYQQ3hyoCOEMZizMppWEDmzdt/w4SoJT/ScY09q76RF3mwShkToH/729+Oc+QS3xhjmgWLTpx66qnhoosuCqeddlpcEY0wxietksYx184777wYV0sPI3a1Jw575s0FRPDpp58ewxHOKoMpylhdzZhWo+ME7/aXXj6Vy4t1TO8yb+7s0DNnVvms+cyY3hUGljTWT9iE8PrXvz66OrBqGCA+OU6XU0YMAwJWIhiBykBPWua5hXSeXazIgJUYK7LcGtiz6g/H73rXu6Jg1tK7xhjTLJjnllXF1q1bF1cQY+5c9sx7y56FIxiXmEOXxR+w/CJYEbLXX399zIPV06rNk4vg5WkWZRA3u4KjMa1Axwnex37zdNi5e0/5LIRt218KT2x+tnxWna5p08KyReM/i8KCnrnxBTszfvADgOsB1lwG79e85jXlKy+HuFmIz4awZqU18kDgshAF4T/4wQ+iWwPC1xhjmgWCFgG7evXqKEy5Wc9CGE+esPLKqlsPLDeMQJZ1lyWKjWk1Ok7w7tq9Ozz8778OP//V4+HhR/4j/Ptjm8LevYPlq9U5hNkTJsinlhfsPE/v+IHrAdZcXBKw5KZLQPPyGyL32muvjXFk/QVZbJ9//vlo+WX+SGaIAFwisACzEttnP/vZ+CPjl9eMMc0Et4P169dHay7uWbgxZMFNAcGKhVZW3Urk+egicGXdZaxkOWBjWo2OE7zipR07w85du8tnI8NcuzOmd5fPJgbm6e2ZPX7uFJ0M7g2IV9wP0hfSAPcHhDBCFytw6paga7hB8Ijv3e9+d7xOflh2Eb+E81Ib7hNcN8aYZoFf7qWXXhotuIhVXKsAF4Xrrrtu2OqL4P3yl78cw4RcE/DpJe0JJ5wQLbj46qbxcJtgiWHy2rRpU4xnTKtRuKWFt+/YHZ54trFvvndNmxoOP3ggTM154W282c2Ski9uC36NrT542YxBnS09xlLLpoE9vQZYYBGmXE+vIYARt8Ax7gm4KyiMPEmL2FVegviEpULZGGNqpZ6lhRGy9913Xxy/uNGWGCWcF9YQwFiBEa3EwT2BF9vY84SKtIhl/IARycRjfOM61xRP6RnbiOvV0YpFEZYWLpzg7eqeHsLkqeHp57aEZ5/fEgYHx968Q5YtGdcX1UbixW1bS+3aWz4z4w1uDFh2U6steGELY8x4UI/gNaYRWPC2IAjeKHpL4K+78cnN4YVtL8bz0bBw/twwsLivfNYaWPBOPIhevXCGRYMX0rKWXGOMaQYWvGa8seBtQVLBK7D2PrX5ubBnb30ikVkZDj9kIEyd0lquzha8xhjTuVjwmvGmCIK3I15a65vPEsLLoi9urUyeNCmsPGhpy4ldY4wxxhhTHx2j5li1DNE7c8aB1t9KsJpa97Rp5TNjjDHGGNOudJT5ctrUqeGwg/pD7/z9q2nlsaR3YVg4z/6YxhhjjDFFoOOe10+aNCksW9wblvYteNnUXrgx8ILa4t555RBjjDGmfbnjjjvi9GETCfPzMpdvq8ACHCP1Cdcb3W8s+sE8xmZi6FgH1UUL54fDVwzE6cZYUIKFJY469OA4K4MxxhhTBNauXRvn251ImMFGc523AgjwvBXnUuizRvdb2g8XXnhhXOFuPKAcFh/pdKasWbPmyvJxIZgydWrcagEXh3lzZ0f3hTmzZoYpk9tD/+/eteuApW6NMcZ0DoODg3GmhlpgQQiEFgtEpLBy2o033ji8kAQrQALiaPPmzeG2224LK1eujE9Fs/HYE0a+LLHOOcesvnbPPfeEVatWhe7u/SuTssjF008/HcPJf+fOnTG/O++8M5ZBWuAa5WJZVTjClMV/ent7YzhilXwQo+T79a9/PeZDGHXK5imw6rK8+wMPPBDPScsCGaByaQeClLpTDtBvtfZVWib1w5qbtuWRRx4JfX19sWzSkJa2cV1Q1q233jpcH5VFP/BZkCf5HHroobHv6e+07LQtpKUs2s1iIkA/jYaurq7yUfvSsRZeY4wxplNhKWDEIaIIoSqL59q1a4fdDxBfxEMsKh6Ci3COFe+yyy6Lyw2zuhpCL2s9ZaU2Pcon/6uvvjoeszLbueeeG/NDqHGN1eAIV96U89BDD8XjNB/Ep+IgTqkn+XBMXVIQfYSRL5BWXHXVVcPlkjeW1yy19pXAjYQ+IU+Ep+pDubShGp/61KfC7bffHtOmZXGMlZY+Jox+45j2qg60JU2rcDOEBa8xxhjTQSBgEYEf//jHw/nnnx/OO++8KN4EYZdffnnYsmVLjKflg4866qhhyye8733vi3mw5DDLE3NOXEReNVjeWGnJHysogpGNp5dcu/7668uxK3P22WfHuJRNHajzxRdfHNuXgmCmnBtuuGE4vqDdhJHXFVdcEetCXJHtK/LP6yv6RmCJxeJK/3EdEZpC+6kv+7QuQB0Qq/Q3caiPoGzqivBWf1Nv+puNehFOH7JHYKsc9tSlk7HgNcYYYzoICVJEECCgUpGK2AKFIfjYiJd1jRgNKleP4SUMEY6ItNWrV9dlnUxdCfJASKtMyMbXueKkgjfbV+zz+iqFPqItiFWsu6eddlr5yshguUXYpkK3FmRhZk/9aRM3MmY/FrzGGGNMgUEE8ThfG8IVoYYbASAyCcvCo3HtsSbmibvRgJUYUabyyZ8whOQtt9wSBZ/cDigT/1PqnbXc1gp+uZQnS7LyBiyzcjPAHQNBm/ZFrX2VQluoLxZlXBsoOxXRgjAJVUEd6WsEcz1Qb30+pOc8FfbZcjoRC15jjDGmwCDAeMTNhtUPIcSjc8TbkUceGQVlngsB8RBe+I4Sb+3atfHx+FhBmGHJxJdX4gwRiQ/tcccdF/eEA3vOsfqmAq4e5EJBmaeeeuoBbcBVgf6hfSo3Ffa19lUKbSE+bUHwqo0pWIGJg99tCp8PfsRYhdN61AI3C2oLFnL1l9xMZGmmH2hrpzGpdIdRqNf9u7qnx63IvLhtaxgc3Fs+M8YY00kwQ8OOHTvKZ2MDK2NWjOVRa7yRQHTJ9xarY1bU5YWNB7WUW28fjLYtY+2DkdLzEt4111xzgN/xSMyePbt81L7YwmuMMcZ0KLUKuEaI3Sx5omwsQm8s1FJuvX0w2raMtQ+qpcfSSzvqEbtFwRbeNsQWXmOM6VwaaeE1phZs4TXGGGOMMabFseA1xhhjTEej+XarwWwOI8XJo5a8GwFl8NKayceC1xhjjDHjAtN71TLHLKuJNVskMg2ZZi6gvJFmLuA6MyvUSy15jwVmZaBP2TR/MSK7E2diqMaUNWvWXFk+LgT4tu7dsyfs2b2rsJv9d40xpnMZHByMfry1wlv7DzzwwPAKYCIvHKG0a9euKDYfeeSROIetqJSP5sgdKZw8P/CBD4SdO3fGfHt7e2M84qRlcU48Xq7q6+uL5W7atGk4PpbWnp6eWE/qw/Gjjz46fF1UqpfKI19EIoterFq1Khx66KExD+VPnM2bN8c6wMqVK4fjQLbeQJ6EpeGV8s6mTfNTvO7u7vLVIRQnbRMrs51zzjlxPuNXvepVMf1NN90UxTkvp6VljJaurq7yUftSuJfWjDHGmCJTz0trPOJmHl3EI3PIanlarI4IJQQR4cy3i/BjjlZZVtkzZy3zu2INxXrIHLOEE5dN1kvCyYe45JmGIyoJZ4+FF6FGWuaHpTxmFUAoEk68D33oQ+HOO++M+TAHLuJPeQAWTY4RtMzl29/fH0VdOj9uXvm0hXlvEYKEUyazFtx1112xj4B5ecmfuFxL+4y60o/E0Ty5EvLr1q2L8dP2EJdys3lTNnFJp35PPw/ypM7UizxEpb5O+4M8OGYuX+Lo8xsrfmnNGGOMMS0LIglhiSBD+GAhBIQRAoxwBB3niDRAJCG2CEN4Ec4eCyKrh5EPogvBRhzlzaIJCEqFM9cr4YhF0lMOYo55eBF5CFkgPeUh2O64445YBiB2qUs1EI7Ezy4GQV1VLxbcQLBTr7Vr1w7X6/jjjy/HfjlnnnlmTM/CEWnfAPmw0Qby0apo9DXtU7lAvCyko730g1wkELK0l7TUN4v6VHmrr/NAJFOGBLcZwoLXGGOMKSiy8gF7xKFEGKIVtBIXG8iqiHgDwhFQCFJWD7vooouiAOQcsGpi8ZR4U7iEG0KXLQsimLxJy0Z5qbCsBeqaWkHFQw89NFwv+gCy9VL788ByCghfUN8A5SE4sXjTH3pRjH5VOonNvLopjD35ko52Z8tMqdTXpnYseI0xxpiCgqiSwMW6y+N1LUyQhoMEbiUQy+vXr4/CDOuifEMRdlgs2WOlVDiCFnBjwIKZhbohOknLhpUW8Z2HhLDqXA1EJK4O1Jd8JSTVPtVL+zzUJ7JCp31DXbAg0xe0GcGLZTrta/b0dS31JR2ficrSPkV9qjapr03tWPAaY4wxBQXLLI/CscpiHUS4seFmgGglHEsl5xLCeSAOSU8ajhGmCDUeyxOOuGPJWsSfwgljQ3xKMHIN6yQCmBetEITUAZ9T8hHEIy1lIS4RoFwnbi2QHhcD5QGIa6zchJGPLL950A71DX2Y9s2+fftiONcpA6gj8dJ6Ui71qAX6n89p9erV0X85i/qUfqL+6utKIJDpW/UpLh2qa6fil9aMMcaYNqLeldYQPhJfqU8sYVxLwxFsiFPCsJSmLhF58aFSOIIMa2gaTp6qi/yAKZN4iOjU+kw8rLPEIw51IQ7HhJEXG8dZlJ5yyFNtAurFLAfkrfRpu/USGNcIy+ubavXOhqfpqBPlEU5clU98uS0AwhdLruos8vpaeWb7Q3EllCXKR0MRXlqz4DXGGGPaCC8t3FwkeFPx3mw0qwLiFAsvwhXB2yiwCOMOkRXQtWLBa4wxxphxxYK3ueBygdgdrTgcLViesQbjjpBajRuBrMKjxYLXGGOMMeOKBa8ZbzwPrzHGGGPMGMGH1ZhmYsFrjDHGmJeh1dWqwZRjY337nym9mM92okUvMxpkZz6gTnnThJn2w4LXGGOMMS8Dv098SqvBi1bEGwvMHsBLYo30WR0NzGrAy2IpiHFWWzPtjwWvMcYYU1AQrLyhjwUVC6bEKZZZVuwiPLXiEk4Y02JVErJpnFQgUhZlZMtKySuXdMwtC8zzq3DSa6U0jpU35SJOgTAszMQjHGss7U1XI8umJb9seJ6Vmryoi+oBaRuZa5drwHXySOtHGJvKIx3zD2frB7RbabGsA2KbNGyUZcaGBa8xxhhTUBCSzMuqFdIkHlkM4uMf/3i0rCLsEGsKv+SSS+JeojIFEaZVzLJxEGWUtW7duliWRKxALKbl4j4gcSfhiAtBKqIJ55x4HN99991xBgO5HhBGvqzSxoIQWGPJn1kWJGKpB9Zj6nX88cdHAUk5avPnP//5OC9vFizPLInM7AbUF2gj4eRFnmqj6kE85tNFKFMn0qoexEHw0ncsukEc6oHYZSoy6sG0ZLSBfuUae9XDjA0LXmOMMaagIEARTRKjp59+ehStLISAiESAIawQYwhfws8777zhuFkQzFxDULJHfALp2RByiDyuUy5hApGalgupYK6GVg5jvlqEbbqAAnWgLmm90im4KOOCCy6IYewR0ORFOAITcV5JUFJfIC39QzqErcRy2j7yVj3oO9UnFfDUm7zoY8LJiz6lDdRD1wkHjqkbeZmxYcFrjDHGFBSsnbJ4snQtVkWJOMQpG9fzVuBCCOeRCrj0GHSuMrQHLKJsabksqVuJNG+EKQsxkA4xiJW2HtSWbH0rtTEPtQVxSj2oO1bc0ZCWm/VdztbRNAYLXmOMMaagIAyxrGIpBMQUgg0rKRZLznksLysj4YhirLB51lcer2PVJA7+uIpD/ohqwikP1wXyS8XcmWeeOWwhpVwe5cu/VZAPj/fJW64AwDFW6v7+/gNEdC1QL9JTL/aUgTUVEY0fLWVRl0ogTkkryzHH1J90slTXCvHpW9WDPOlT6kG46kHfmcYyZc2aNVeWj40xxhjT4gwODsbFJ2oBMfX1r389ClMEJ1ZJBOMb3vCGYVFLOBbe7u7usHLlyijo8GklDnERjAKRhnvBPffcExYtWhTjcC7h9sgjj8Rrp5xySvjgBz8Y8xTkpfogek866aTwjne8I5YlIU4+iGLywUUASHPyySfHNIhh8rn88stDX19fjLtq1apYL4Sp6rJt27ZYNunIl7TU69BDDw0f/vCHYx7Eo1xE9yte8YrQ29sbyyIvwTFlPPDAA7Gt5MWx8vqTP/mTmBdxSEse5HnYYYfFvlQ96EPELiKb8ohDPcif+tMWRO/OnTuj5Zu0sgLThommq6urfNS+eKU1Y4wxpo3wSmvtCTMz4I+LO0S74ZXWjDHGGGPMiOBGgQXaTAy28BpjjDFthC28ZryxhdcYY4wxxpgWx4LXGGOMKSijmUkAeAmLWRHypu1iHl9eAlMc9lkUZ6KhHnn1E1zj5T1TfCx4jTHGmILCDAij8RvVnLnMJpBl7dq1cSYHxclDcUYDIrXeeXY1/VoWpkdj+rVKcI2VzUzx8bRkxhhjTBtRz7RkTO/FlFcI0xtvvDFOoXXTTTeFp59+OgphpszCinvrrbeG2267LQpcputieizSckwahCELV2gaL02nNVIcrlEuZRGHadDYCMf6TDmIY6b5YiouII9//dd/jdeY6ktgMf7GN74RywXST58+PU4TRt1pB21NpxXDus2UYJRH/VQW8ZhCTFOdEUd1Jy6QH3VnurA0nHI3b94cy6TO3FQQj3zoV8UrEkWYlswWXmOMMaagINYQeog3rbSG+NXCEcBiBwhBhCJxWBRB8fXIn6VwAbEqV4V64wB1kQsBZWKBpT5YZ1kAoxrkmbpnkP6hhx4qn1UHwUr9EN1w1llnxboJ8qX99IvKIA4iFgFLGxROucQD8iAedVP/2UWiNbHgNcYYYzqEK664Ii4+wQIKCFOEIKJYy/zecsst4ZhjjinHHgIxigWUOGwSjSkIvpHi5MFCDJTL/LSIYtJRN0Qw4bVAfNKdfvrpsQ55cH39+vUxDtODgUQ53HDDDbE8rb6GMKc+tIVFORDLiFlBGItfbNmyJcbjnHwpH5FsWg8LXmOMMaZDyPrcyvIqNwD2iMIsug7pscDSOVKcPLL1aRa089RTT42W2U2bNpVDh0jFeVaoqx3suTkQqrf6D5HMBkV0aSgCFrzGGGNMh4KQQ7zpcT3uDVnXAgQcVkvEHRuW4SzkkxdHwhAr8eOPPz4sCkcCAS0xmUIYlllZYFM4T90UUnAzwI8YCzZW3BSELPUlLfXDUkubqbvcPuTakAXrMrB6GtZg0tYq9s34YsFrjDHGdChYNBFqCNIjjzwyCjsez6dwjvhjaVymIZNLQApx+vv7YxxmTFAc8sdVAEGNW0All4MUXlRTeamARVwiJlevXh3dC1JhSfmE4X+cB2kRtscdd1wU9SnkgyDmGlBf6o37BwKYfkEQX3/99fF6itp34YUXxvT49+b1j5l4vNKaMcYY00Y0a6U1LKTVrJOIT1lsK1FLnImkWhsr1X2kfhG1xmtHirDSmgWvMcYY00Z4aWEz3nhpYWOMMcYYY1ocC15jjDHGGFNoLHiNMcYYY0yhseA1xhhjjDGFxoLXGGOMMcYUGgteY4wxxhhTaCx4jTHGGGNMobHgNcYYY4wxhcaC1xhjjDHGFBoLXmOMMcYYU2gseI0xxhhjTKGx4DXGGGOMMYXGgtcYY4wxxhSaSRs3btxXPjbGGGNMi7Nnz56wY8eO8tnE8dKuvWHvPkuIZjFj2pQwZfKk8tnEMnv27PJR+2LBa4wxxrQRrSJ4n92+K+zeawnRLObPmha6prTGg/giCF67NBhjjDHGmEJjwWuMMcYYYwqNBa8xxhhjjCk0FrzGGGOMMabQWPAaY4wxxphCY8FrjDHGGGMKjQWvMcYYY4wpNBa8xhhjjDGm0FjwGmOMMcaYQmPBa4wxxhhjCo0FrzHGGGOMKTQWvMYYY4wxptBY8BpjjDHGmEJjwWuMMcYYYwrNpI0bN+4rHxtjjDGmxdmzZ0/YsWNH+WzieHb7rrB7b3EkxOTJk8P07q4wc3p36Jo2NUydOiXs27cv7N6zN+zYuSvs3Lk77Ni1K4aNB/NnTQtdU1rDLjl79uzyUftiwWuMMca0ERa8jWXqlCmhb0FPmN8zN0wridxKIHR37todXtj2Ytj83JaSEN5TvtIcLHgbiwWvMcYY00ZY8DaGSZMmhSUL54eFJbE7ZXL9wnLL1m3hyWe2hJea9FlY8DYW+/AaY4wxpqPo7uoKhx28LCzqnT8qsQs9c2aHww/uD8uX9kX3B9PaWPAaY4wxpmOYM2tmSez2R1/dsYKVeEHP3HDkIctLAnhWOdS0Iha8xhhjjOkI5s2dHVYuXxr9dhsJFt5Dli0JB/cvbnjepjFY8BpjjDGm8PTOmxsOWrqofNYcENS4SkzvmlYOMa2CBa8xxhhjCs28ObPDsiV90QWh2XSXxO5hBw/EMk3rYMFrjDHGmAmB+W77FswLSxctDAvnMS3Y1PKVxjFjencYWNpXPhsfpkyZHA7qXxR65/WUQ8xEY8FrjDHGmHFnQc+ccOTKg0J/SewuKonegSV94YiVy8PMGdPLMcYOAnrFwJJRz8QwFrAmL1vSGxb3zi+HmInEgtcYY4wx40pXV1dYtrgvTM64GEwtCdMVy5aEyZPH7nqA4OQlsmZYjethSe+CKHrHw53CVMaC1xhjjDHjyvw5syqKWmY8aIT/65KSyJw1s3HW4rGA6MWKbSYOC15jjDHGjCvTplW3uk7rGptVlrl2Fy1sLVeCJX1Dll4zMVjwGmOMMWZc2Ts4WD7KZ9fOPeWj+sGFYXmTpx8bLVh6WajCjD8WvMYYY4wZV555bkvYt29f+exA9uzZG7Zu314+q59lixeWRG/rLv7AUsRzZ3tVtvHGgtcYY4wx48qu3XvC4088HQYzll7O/+OJp8KevdUtwJVgarOeNpj/FtHLdGlm/LDgNcYYY8y48+yWreHnv3o8PP3slvD81m3hic3Phg2PPBa2bnuxHKM+pk6dGl0G2gGWHz6kf8mEzyDRSVjwGmOMMWZC2Llrd9j01Obw641Phic3Pxd27Rm97y5WU2Z4aBe6uqaGQ5YtbsgUbGZkLHiNMcYY09bMnzcnzJ01s3zWPrDIRv+i3vKZaSYWvMYYY4ypG1ZGWzmwNO4X9syNywRPBExxtqyvfUUjszbge2yaiwWvMcYYY+pmendXmDN7ZhRrA0v7wlErDworly8NPXNmjeuqYkv7FoYpU9pXztBV/Yt7w0y/xNZULHiNMcYYM2YQuSz4cMiyJeGIQwbGZeotXBnmz239WRlGgiWWl/cvClMmW5Y1C/esMcYYYxoK1t8VA0tK29LQ3SRXB1woli5sj1kZamF6V1e09I6jcbyjsOA1xhhjTFOYO3tmOPyQ5aFvfk85pHHgOzzSEsXtxoKeOXEzjceC1xhjjDFNA/9aLJdYfBs172zfgp7oPlFE8EmeqBcAi4wFrzHGGGOaDj69hx3cH2bOGNvLWaxQhigsKlOmTAkHLV0c/XpN47DgNcYYY8y40DVtWjjsoGVhwbzRPbbHQoyleDxngZgIZs2cHmZ0e9aGRmLBa4wxxphxA7E6sGRRWLRgfl3CFdcIZoDolOV4iy7qxxsLXmOMMcaMK0i5pYsWhP7FC2sSdiy/e3D/kjG7Q5jOxYLXGGOMMRNC77yeOHVZtYUjsOgeurw/zJk1oxxiTP1Y8BpjjDFmwkDIHnHwQOju7iqHDIHll1XcjlixPMycMb0caszomLRx48Z95WNjjDHGtDh79uwJO3bsKJ9NHAt6+0JXV+NcDPbt2xde2rkz7Ny1O85QMGvGjDB16pTy1c7j2c1Ph127dpbPJpbZswuwml15b4wxxhgzYWDRnTl9epg/d07omTO7o8WuaTwWvMYYY4wxptBY8BpjjDHGmEJjwWuMMcYYYwqNBa8xxhhjjCk0FrzGGGOMMabQWPAaY4wxxphCY8FrjDHGGGMKjQWvMcYYY4wpNBa8xhhjjDGm0FjwGmOMMcaYQmPBa4wxxhhjCo0FrzHGGGOMKTQWvMYYY4wxptBY8BpjjDHGmEJjwWuMMcYYYwrNpI0bN+4rHxtjjDGmxdmzZ0/YsWNH+WzimNszL0ydOq18ZhrNC1ueL33Wu8tnE8vs2bPLR+2LBa8xxhjTRrSK4DWdQxEEr10ajDHGGGNMobHgNcYYY4wxhcaC1xhjjDHGFBoLXmOMMcYYU2gseI0xxhhjTKGx4DXGGGOMMYXGgtcYY4wxxhQaC15jjDHGGFNovPCEMcYY00YMDg7GxSeMGS+6urrKR+2LBa8xxhhjjCk0dmkwxhhjjDGFxoLXGGOMMcYUGgteY4wxxhhTaCx4jTHGGGNMobHgNcYYY4wxhcaC1xhjjDHGFBoLXmOMMcYYU2gseI0xxhhjTKGx4DXGGGOMMYXGgtcYY4wxxhQaC15jjDHGGFNoLHiNMcYYY0yhseA1xhhjjDGFxoLXGGOMMcYUGgteY4wxxhhTaCx4jTHGGGNMobHgNcYYY4wxhcaC1xhjjDHGFBoLXmOMMcYYU2gseI0xxhhjTKGx4DXGGGOMMYXGgtcYY4wxxhQaC15jjDHGGFNoLHiNMcYYY0yhseA1xhhjjDGFxoLXGGOMMcYUGgteY4wxxhhTaCx4jTHGGGNMobHgNcYYY4wxhcaC1xhjjDHGFBoLXmOMMcYYU2gmbdy4cV/52BhjjDEtwBNPPlXaniyfGdPerPqtV5aPJg4LXmOMMabFWPu/vlDabiufGdO+LFm8KHz+f/6P8tnEYZcGY4wxxhhTaCx4jTHGGGNMobHgNcYYY4wxhcaC1xhjjDHGFBoLXmOMMcYYU2gseI0xxhhjTKGx4DXGGGOMMYXGgtcYY4wxxhQaC15jjDHGGFNoLHiNMcYYY0yhseA1xhhjTMuyrH9puPS/vT+sftMbyiEhHHXk4aG/FF6JOXPmxDiVOO+P3n7A9ROO+51YBmUdXzomfSXy6gOnn/raivUiDWVm05jxY8qaNWuuLB8bY4wxpgV48Cf/Vtp+Wj7rbD72kb8M1//3z0QxuWvXrvD2t54Turu7w9atW+Mx4Sf/H6+OcRGubFu3bgvn/tE7w0D/krCwt7cUvyv81m+9Mjz6q1+X4h8RxWlv78Jw//ofRXFLPh////1NFKQrVxwSyzn3j94RVpSOn3nmmZJYfUeMR/qzS3Ee3vDzUpzdMR7nlHHGqaeEnaVzID75P7zhF1Hsku9QnbdFQf2vpc+3U5g9e1Y4Z/Ufls8mDlt4jTHGGNPSIBSPPvLIknjsDy+UhO6mTb+JwhXmloQoghjhiXW1vxQHHt6woRR3WxTGCFyEMBBnzpzZ8RpieW7pWCCAQdZf9gjfjbG8obCvfu0bUfwSjpDNWpM5R+QKBC7cefd3S/GOiPU1448FrzHGGGNalvtKIvSy//ZnYV/pGMsqYhexCohZNiBsUukfghNBK0vukFg9IgpOQOAioE8/9ZTStSfidUT0xz7yF+G0Unzye7wUDpRFmYhlrLVAOs5JR90oT3UiX9KThrJB+Q+5PBwxXF8zvkzauHEjf0PGGGOMaRHW/q8vlLbbymdmLGBtvfC/vDdc8ZcfKYeMP/jvIowRv7d/7evl0M5gyeJF4fP/83+UzyYOC15jjDGmxbDgNUWhVQSvXRqMMcYYY0yhseA1xhhjjDGFxoLXGGOMMcYUGgteY4wxxhhTaCx4jTHGGGNMobHgNcYYY4wxhcaC1xhjjDHGFBoLXmOMMcYYU2gseI0xxhhjTKGx4DXGGGOMMYXGgtcYY4wxxhQaC15jjDHGGFNoLHjN/79deycCEAiCKHiY4FSSEOCNT4Ga0wHJeQCmuqMdBy9YAIBoQ2vt7jcA8AHrfpbtuPqC/6p1LMs89fUewQsAQDQvDQAARBO8AABEE7wAAEQTvAAARBO8AABEE7wAAEQTvAAARBO8AABEE7wAAEQTvAAARBO8AABEE7wAAAQr5QEh/NqDxlK2hQAAAABJRU5ErkJggg==;" vertex="1" parent="1">
          <mxGeometry x="110" y="80" width="700" height="661" as="geometry" />
        </mxCell>
        <mxCell id="_slHPmMoG6IYupCmUko4-5" style="edgeStyle=orthogonalEdgeStyle;rounded=0;orthogonalLoop=1;jettySize=auto;html=1;strokeWidth=4;" edge="1" parent="1" source="_slHPmMoG6IYupCmUko4-3">
          <mxGeometry relative="1" as="geometry">
            <mxPoint x="169.0113067626953" y="254.73011016845703" as="targetPoint" />
          </mxGeometry>
        </mxCell>
        <mxCell id="_slHPmMoG6IYupCmUko4-6" style="edgeStyle=orthogonalEdgeStyle;rounded=0;orthogonalLoop=1;jettySize=auto;html=1;strokeWidth=4;" edge="1" parent="1" source="_slHPmMoG6IYupCmUko4-3">
          <mxGeometry relative="1" as="geometry">
            <mxPoint x="166.2840118408203" y="366.5482864379883" as="targetPoint" />
            <Array as="points">
              <mxPoint x="64" y="255" />
              <mxPoint x="64" y="367" />
            </Array>
          </mxGeometry>
        </mxCell>
        <mxCell id="_slHPmMoG6IYupCmUko4-3" value="&lt;font style=&quot;font-size: 16px;&quot;&gt;Product images for each product&lt;/font&gt;" style="text;html=1;strokeColor=none;fillColor=none;align=center;verticalAlign=middle;whiteSpace=wrap;rounded=0;" vertex="1" parent="1">
          <mxGeometry x="-110" y="240" width="100" height="30" as="geometry" />
        </mxCell>
        <mxCell id="_slHPmMoG6IYupCmUko4-8" style="edgeStyle=orthogonalEdgeStyle;rounded=0;orthogonalLoop=1;jettySize=auto;html=1;strokeWidth=4;" edge="1" parent="1" source="_slHPmMoG6IYupCmUko4-7">
          <mxGeometry relative="1" as="geometry">
            <mxPoint x="709.2791718982512" y="412.9724019368489" as="targetPoint" />
          </mxGeometry>
        </mxCell>
        <mxCell id="_slHPmMoG6IYupCmUko4-9" style="edgeStyle=orthogonalEdgeStyle;rounded=0;orthogonalLoop=1;jettySize=auto;html=1;strokeWidth=4;" edge="1" parent="1" source="_slHPmMoG6IYupCmUko4-7">
          <mxGeometry relative="1" as="geometry">
            <mxPoint x="724.8635980515251" y="635.4832138788131" as="targetPoint" />
            <Array as="points">
              <mxPoint x="838" y="445" />
              <mxPoint x="838" y="636" />
            </Array>
          </mxGeometry>
        </mxCell>
        <mxCell id="_slHPmMoG6IYupCmUko4-7" value="&lt;font style=&quot;font-size: 16px;&quot;&gt;Product images for each product.&lt;br&gt;Images are shown at the bottom of mobile so the user can view them better.&lt;br&gt;&lt;/font&gt;" style="text;html=1;strokeColor=none;fillColor=none;align=center;verticalAlign=middle;whiteSpace=wrap;rounded=0;" vertex="1" parent="1">
          <mxGeometry x="900" y="430" width="100" height="30" as="geometry" />
        </mxCell>
        <mxCell id="_slHPmMoG6IYupCmUko4-11" style="edgeStyle=orthogonalEdgeStyle;shape=connector;rounded=0;orthogonalLoop=1;jettySize=auto;html=1;labelBackgroundColor=default;strokeColor=default;strokeWidth=4;align=center;verticalAlign=middle;fontFamily=Helvetica;fontSize=11;fontColor=default;endArrow=classic;" edge="1" parent="1" source="_slHPmMoG6IYupCmUko4-10">
          <mxGeometry relative="1" as="geometry">
            <mxPoint x="751.1260570179329" y="313.84552695534444" as="targetPoint" />
          </mxGeometry>
        </mxCell>
        <mxCell id="_slHPmMoG6IYupCmUko4-10" value="&lt;span style=&quot;font-size: 16px;&quot;&gt;Product description&amp;nbsp;&lt;/span&gt;" style="text;html=1;strokeColor=none;fillColor=none;align=center;verticalAlign=middle;whiteSpace=wrap;rounded=0;" vertex="1" parent="1">
          <mxGeometry x="870" y="300" width="120" height="30" as="geometry" />
        </mxCell>
        <mxCell id="_slHPmMoG6IYupCmUko4-13" style="edgeStyle=orthogonalEdgeStyle;shape=connector;rounded=0;orthogonalLoop=1;jettySize=auto;html=1;labelBackgroundColor=default;strokeColor=default;strokeWidth=4;align=center;verticalAlign=middle;fontFamily=Helvetica;fontSize=11;fontColor=default;endArrow=classic;" edge="1" parent="1" source="_slHPmMoG6IYupCmUko4-12">
          <mxGeometry relative="1" as="geometry">
            <mxPoint x="425.5061617764559" y="290.7050184770063" as="targetPoint" />
            <Array as="points">
              <mxPoint x="460" y="365" />
              <mxPoint x="460" y="291" />
            </Array>
          </mxGeometry>
        </mxCell>
        <mxCell id="_slHPmMoG6IYupCmUko4-14" style="edgeStyle=orthogonalEdgeStyle;shape=connector;rounded=0;orthogonalLoop=1;jettySize=auto;html=1;labelBackgroundColor=default;strokeColor=default;strokeWidth=4;align=center;verticalAlign=middle;fontFamily=Helvetica;fontSize=11;fontColor=default;endArrow=classic;" edge="1" parent="1">
          <mxGeometry relative="1" as="geometry">
            <mxPoint x="608.9772311123934" y="546.9033327969637" as="targetPoint" />
            <mxPoint x="568" y="373" as="sourcePoint" />
            <Array as="points">
              <mxPoint x="583" y="547" />
            </Array>
          </mxGeometry>
        </mxCell>
        <mxCell id="_slHPmMoG6IYupCmUko4-12" value="&lt;span style=&quot;font-size: 16px;&quot;&gt;Product description&amp;nbsp;&lt;/span&gt;" style="text;html=1;strokeColor=none;fillColor=none;align=center;verticalAlign=middle;whiteSpace=wrap;rounded=0;" vertex="1" parent="1">
          <mxGeometry x="480" y="350" width="90" height="30" as="geometry" />
        </mxCell>
        <mxCell id="_slHPmMoG6IYupCmUko4-18" style="edgeStyle=orthogonalEdgeStyle;shape=connector;rounded=0;orthogonalLoop=1;jettySize=auto;html=1;labelBackgroundColor=default;strokeColor=default;strokeWidth=4;align=center;verticalAlign=middle;fontFamily=Helvetica;fontSize=11;fontColor=default;endArrow=classic;" edge="1" parent="1" source="_slHPmMoG6IYupCmUko4-16">
          <mxGeometry relative="1" as="geometry">
            <mxPoint x="228" y="244" as="targetPoint" />
            <Array as="points">
              <mxPoint x="199" y="175" />
              <mxPoint x="199" y="244" />
            </Array>
          </mxGeometry>
        </mxCell>
        <mxCell id="_slHPmMoG6IYupCmUko4-16" value="&lt;span style=&quot;font-size: 16px;&quot;&gt;edit button so a user can edit that product&amp;nbsp;&lt;/span&gt;" style="text;html=1;strokeColor=none;fillColor=none;align=center;verticalAlign=middle;whiteSpace=wrap;rounded=0;" vertex="1" parent="1">
          <mxGeometry x="-50" y="160" width="100" height="30" as="geometry" />
        </mxCell>
        <mxCell id="_slHPmMoG6IYupCmUko4-20" style="edgeStyle=orthogonalEdgeStyle;shape=connector;rounded=0;orthogonalLoop=1;jettySize=auto;html=1;labelBackgroundColor=default;strokeColor=default;strokeWidth=4;align=center;verticalAlign=middle;fontFamily=Helvetica;fontSize=11;fontColor=default;endArrow=classic;" edge="1" parent="1" source="_slHPmMoG6IYupCmUko4-19">
          <mxGeometry relative="1" as="geometry">
            <mxPoint x="682" y="257" as="targetPoint" />
            <Array as="points">
              <mxPoint x="768" y="175" />
              <mxPoint x="768" y="250" />
              <mxPoint x="767" y="250" />
              <mxPoint x="767" y="257" />
            </Array>
          </mxGeometry>
        </mxCell>
        <mxCell id="_slHPmMoG6IYupCmUko4-19" value="&lt;span style=&quot;font-size: 16px;&quot;&gt;edit button so a user can edit that product&amp;nbsp;&lt;/span&gt;" style="text;html=1;strokeColor=none;fillColor=none;align=center;verticalAlign=middle;whiteSpace=wrap;rounded=0;" vertex="1" parent="1">
          <mxGeometry x="860" y="160" width="100" height="30" as="geometry" />
        </mxCell>
        <mxCell id="_slHPmMoG6IYupCmUko4-22" style="edgeStyle=orthogonalEdgeStyle;shape=connector;rounded=0;orthogonalLoop=1;jettySize=auto;html=1;labelBackgroundColor=default;strokeColor=default;strokeWidth=4;align=center;verticalAlign=middle;fontFamily=Helvetica;fontSize=11;fontColor=default;endArrow=classic;" edge="1" parent="1" source="_slHPmMoG6IYupCmUko4-21">
          <mxGeometry relative="1" as="geometry">
            <mxPoint x="322.4281873201071" y="264.78283852025083" as="targetPoint" />
            <Array as="points">
              <mxPoint x="403" y="165" />
              <mxPoint x="403" y="265" />
            </Array>
          </mxGeometry>
        </mxCell>
        <mxCell id="_slHPmMoG6IYupCmUko4-23" style="edgeStyle=orthogonalEdgeStyle;shape=connector;rounded=0;orthogonalLoop=1;jettySize=auto;html=1;labelBackgroundColor=default;strokeColor=default;strokeWidth=4;align=center;verticalAlign=middle;fontFamily=Helvetica;fontSize=11;fontColor=default;endArrow=classic;" edge="1" parent="1" source="_slHPmMoG6IYupCmUko4-21">
          <mxGeometry relative="1" as="geometry">
            <mxPoint x="602.8109741210938" y="286.79240497789885" as="targetPoint" />
            <Array as="points">
              <mxPoint x="570" y="165" />
              <mxPoint x="570" y="287" />
            </Array>
          </mxGeometry>
        </mxCell>
        <mxCell id="_slHPmMoG6IYupCmUko4-21" value="&lt;span style=&quot;font-size: 16px;&quot;&gt;Product category, price and status&lt;/span&gt;" style="text;html=1;strokeColor=none;fillColor=none;align=center;verticalAlign=middle;whiteSpace=wrap;rounded=0;" vertex="1" parent="1">
          <mxGeometry x="460" y="150" width="100" height="30" as="geometry" />
        </mxCell>
        <mxCell id="_slHPmMoG6IYupCmUko4-26" style="edgeStyle=orthogonalEdgeStyle;shape=connector;rounded=0;orthogonalLoop=1;jettySize=auto;html=1;labelBackgroundColor=default;strokeColor=default;strokeWidth=4;align=center;verticalAlign=middle;fontFamily=Helvetica;fontSize=11;fontColor=default;endArrow=classic;" edge="1" parent="1" source="_slHPmMoG6IYupCmUko4-24">
          <mxGeometry relative="1" as="geometry">
            <mxPoint x="213.3372256630346" y="414.0651935778167" as="targetPoint" />
          </mxGeometry>
        </mxCell>
        <mxCell id="_slHPmMoG6IYupCmUko4-24" value="&lt;span style=&quot;font-size: 16px;&quot;&gt;Products description&amp;nbsp;&lt;/span&gt;" style="text;html=1;strokeColor=none;fillColor=none;align=center;verticalAlign=middle;whiteSpace=wrap;rounded=0;" vertex="1" parent="1">
          <mxGeometry x="-100" y="400" width="100" height="30" as="geometry" />
        </mxCell>
        <mxCell id="_slHPmMoG6IYupCmUko4-29" style="edgeStyle=orthogonalEdgeStyle;shape=connector;rounded=0;orthogonalLoop=1;jettySize=auto;html=1;labelBackgroundColor=default;strokeColor=default;strokeWidth=4;align=center;verticalAlign=middle;fontFamily=Helvetica;fontSize=11;fontColor=default;endArrow=classic;" edge="1" parent="1">
          <mxGeometry relative="1" as="geometry">
            <mxPoint x="289.1202931123621" y="185.36694515452655" as="targetPoint" />
            <mxPoint x="290" y="70" as="sourcePoint" />
          </mxGeometry>
        </mxCell>
        <mxCell id="_slHPmMoG6IYupCmUko4-31" style="edgeStyle=orthogonalEdgeStyle;shape=connector;rounded=0;orthogonalLoop=1;jettySize=auto;html=1;labelBackgroundColor=default;strokeColor=default;strokeWidth=4;align=center;verticalAlign=middle;fontFamily=Helvetica;fontSize=11;fontColor=default;endArrow=classic;" edge="1" parent="1" source="_slHPmMoG6IYupCmUko4-28">
          <mxGeometry relative="1" as="geometry">
            <mxPoint x="676.2860358743105" y="181.08888334386484" as="targetPoint" />
          </mxGeometry>
        </mxCell>
        <mxCell id="_slHPmMoG6IYupCmUko4-28" value="&lt;span style=&quot;font-size: 16px;&quot;&gt;Title of the page so the user knows what page they are on and what they are looking at.&lt;/span&gt;" style="text;html=1;strokeColor=none;fillColor=none;align=center;verticalAlign=middle;whiteSpace=wrap;rounded=0;" vertex="1" parent="1">
          <mxGeometry x="190" y="10" width="200" height="30" as="geometry" />
        </mxCell>
        <mxCell id="_slHPmMoG6IYupCmUko4-32" value="&lt;font style=&quot;font-size: 36px;&quot;&gt;&lt;b&gt;Your Products page&lt;/b&gt;&lt;/font&gt;" style="text;html=1;strokeColor=none;fillColor=none;align=center;verticalAlign=middle;whiteSpace=wrap;rounded=0;fontSize=11;fontFamily=Helvetica;fontColor=default;" vertex="1" parent="1">
          <mxGeometry x="260" y="-160" width="390" height="90" as="geometry" />
        </mxCell>
      </root>
    </mxGraphModel>
  </diagram>
</mxfile>
